<svg width="100" height="100" viewBox="0 0 100 100" fill="none" xmlns="http://www.w3.org/2000/svg">
<circle cx="50" cy="50" r="50" fill="#DAF6E7"/>
<g clip-path="url(#clip0_18_3598)">
<path d="M61.0511 76.0874H38.9489C38.9489 76.0874 42.7177 73.1996 42.7177 67.5585H57.2823C57.2823 73.1996 61.0511 76.0874 61.0511 76.0874Z" fill="#ADE7FF"/>
<path d="M57.2823 67.5585H53.9759C53.9759 73.1996 57.7447 76.0874 57.7447 76.0874H61.0511C61.0511 76.0874 57.2823 73.1996 57.2823 67.5585Z" fill="#82D2F5"/>
<path d="M77.1804 68.1466H22.8196C21.8147 68.1466 21.0001 67.3324 21.0001 66.3274V32.6223C21.0001 31.6174 21.8147 30.8028 22.8196 30.8028H77.1804C78.1853 30.8028 78.9999 31.6174 78.9999 32.6223V66.3274C78.9999 67.3324 78.1853 68.1466 77.1804 68.1466Z" fill="#685C79"/>
<path d="M77.1803 30.8028H73.6797C74.6846 30.8028 75.4988 31.6174 75.4988 32.6223V66.3275C75.4988 67.3324 74.6846 68.1466 73.6797 68.1466H77.1803C78.1853 68.1466 78.9999 67.3324 78.9999 66.3275V32.6223C78.9999 31.6174 78.1853 30.8028 77.1803 30.8028Z" fill="#594F69"/>
<path d="M24.5012 64.1929V34.7571C24.5012 34.5066 24.7038 34.3039 24.9543 34.3039H75.0458C75.2963 34.3039 75.499 34.5066 75.499 34.7571V64.1929C75.499 64.4429 75.2963 64.6461 75.0458 64.6461H24.9543C24.7038 64.6461 24.5012 64.4429 24.5012 64.1929Z" fill="#85BB72"/>
<path d="M65.0545 78.9999H34.946C33.9792 78.9999 33.1955 78.2162 33.1955 77.2494C33.1955 76.2825 33.9792 75.4988 34.946 75.4988H65.0545C66.0214 75.4988 66.8051 76.2825 66.8051 77.2494C66.8051 78.2162 66.0214 78.9999 65.0545 78.9999Z" fill="#685C79"/>
<path d="M65.0545 75.4988H61.5388C62.5052 75.4988 63.2889 76.2829 63.2889 77.2494C63.2889 78.2162 62.5052 78.9999 61.5388 78.9999H65.0545C66.0209 78.9999 66.805 78.2162 66.805 77.2494C66.805 76.2825 66.0213 75.4988 65.0545 75.4988Z" fill="#594F69"/>
<path d="M67.5488 23.6002C67.5488 24.567 66.7652 25.3507 65.7983 25.3507C64.8314 25.3507 64.0477 24.567 64.0477 23.6002C64.0477 22.6333 64.8314 21.8496 65.7983 21.8496C66.7652 21.8496 67.5488 22.6333 67.5488 23.6002Z" fill="#FFEB17"/>
<path d="M51.7506 23.6002C51.7506 24.567 50.9669 25.3507 50 25.3507C49.0331 25.3507 48.2495 24.567 48.2495 23.6002C48.2495 22.6333 49.0331 21.8496 50 21.8496C50.9669 21.8496 51.7506 22.6333 51.7506 23.6002Z" fill="#FF2C5C"/>
<path d="M35.9523 23.6002C35.9523 24.567 35.1686 25.3507 34.2017 25.3507C33.2348 25.3507 32.4512 24.567 32.4512 23.6002C32.4512 22.6333 33.2348 21.8496 34.2017 21.8496C35.1686 21.8496 35.9523 22.6333 35.9523 23.6002Z" fill="#FFEB17"/>
<path d="M68.3985 23.6002C68.3985 22.1664 67.232 21 65.7983 21C64.3646 21 63.1981 22.1664 63.1981 23.6002C63.1981 24.7365 63.9309 25.7038 64.9487 26.0569V27.3017H57.0752C56.6057 27.3017 56.2256 27.6823 56.2256 28.1513V41.2234C56.2256 41.6924 56.6057 42.073 57.0752 42.073C57.5443 42.073 57.9248 41.6924 57.9248 41.2234V29.0009H65.7983C66.2678 29.0009 66.6479 28.6208 66.6479 28.1513V26.0569C67.6657 25.7038 68.3985 24.7365 68.3985 23.6002ZM65.7983 24.5011C65.3014 24.5011 64.8974 24.0971 64.8974 23.6002C64.8974 23.1032 65.3014 22.6992 65.7983 22.6992C66.2952 22.6992 66.6992 23.1032 66.6992 23.6002C66.6992 24.0971 66.2952 24.5011 65.7983 24.5011Z" fill="#594F69"/>
<path d="M50 21C48.5663 21 47.3998 22.1664 47.3998 23.6002C47.3998 24.7365 48.1326 25.7038 49.1504 26.0569V37.8957C49.1504 38.3652 49.5309 38.7453 50 38.7453C50.4695 38.7453 50.8496 38.3652 50.8496 37.8957V26.0569C51.8674 25.7038 52.6002 24.7365 52.6002 23.6002C52.6002 22.1664 51.4337 21 50 21ZM50 24.5011C49.5031 24.5011 49.0991 24.0971 49.0991 23.6002C49.0991 23.1032 49.5031 22.6992 50 22.6992C50.4969 22.6992 50.9009 23.1032 50.9009 23.6002C50.9009 24.0971 50.4969 24.5011 50 24.5011Z" fill="#594F69"/>
<path d="M42.9253 27.3017H35.0513V26.0569C36.0691 25.7038 36.8019 24.7365 36.8019 23.6002C36.8019 22.1664 35.6354 21 34.2017 21C32.768 21 31.6016 22.1664 31.6016 23.6002C31.6016 24.7365 32.3344 25.7038 33.3521 26.0569V28.1513C33.3521 28.6208 33.7327 29.0009 34.2017 29.0009H42.0757V41.2234C42.0757 41.6924 42.4558 42.073 42.9253 42.073C43.3943 42.073 43.7749 41.6924 43.7749 41.2234V28.1513C43.7749 27.6823 43.3943 27.3017 42.9253 27.3017ZM34.2017 22.6992C34.6987 22.6992 35.1027 23.1032 35.1027 23.6002C35.1027 24.0971 34.6987 24.5011 34.2017 24.5011C33.7052 24.5011 33.3008 24.0971 33.3008 23.6002C33.3008 23.1032 33.7052 22.6992 34.2017 22.6992Z" fill="#594F69"/>
<path d="M61.3202 42.8827V56.2995C61.3202 56.5623 61.1697 56.8004 60.933 56.9137L57.8722 58.3762L50.2934 61.9963C50.2005 62.0405 50.0996 62.0622 50 62.0622C49.9005 62.0622 49.7996 62.0405 49.7066 61.9963L39.0675 56.9137C38.8308 56.8004 38.6799 56.5623 38.6799 56.2995V42.8827C38.6799 42.7464 38.7206 42.6172 38.7932 42.5088C38.8591 42.4079 38.9529 42.3238 39.0675 42.2699L46.7525 38.5984L49.7066 37.1868C49.8925 37.0974 50.1076 37.0974 50.2934 37.1868L60.933 42.2699C61.0472 42.3238 61.1414 42.4079 61.2069 42.5088C61.2795 42.6172 61.3202 42.7464 61.3202 42.8827Z" fill="#FF2C5C"/>
<path d="M50 47.8622V62.0622C49.9005 62.0622 49.7996 62.0405 49.7066 61.9963L39.0675 56.9137C38.8308 56.8004 38.6799 56.5623 38.6799 56.2995V42.8827C38.6799 42.7464 38.7206 42.6172 38.7932 42.5088L50 47.8622Z" fill="#4FB1F5"/>
<path d="M61.3202 42.8827V56.2995C61.3202 56.5623 61.1697 56.8004 60.933 56.9137L57.8722 58.3761L50.2934 61.9963C50.2005 62.0405 50.0996 62.0622 50 62.0622V47.8622L57.8186 44.1275L61.2069 42.5088C61.2794 42.6172 61.3202 42.7464 61.3202 42.8827Z" fill="#FFD659"/>
<path d="M61.2069 42.5088L57.8187 44.1275L46.7525 38.5984L49.7067 37.1868C49.8925 37.0974 50.1076 37.0974 50.2934 37.1868L60.933 42.2699C61.0472 42.3238 61.1414 42.4079 61.2069 42.5088Z" fill="#E62753"/>
<path d="M61.3201 42.8827V56.2995C61.3201 56.5623 61.1697 56.8004 60.933 56.9137L57.8721 58.3761L57.8186 44.1275L61.2069 42.5088C61.2794 42.6172 61.3201 42.7464 61.3201 42.8827Z" fill="#FFEB17"/>
</g>
<defs>
<clipPath id="clip0_18_3598">
<rect width="58" height="58" fill="white" transform="translate(21 21)"/>
</clipPath>
</defs>
</svg>
