<svg width="100" height="100" viewBox="0 0 100 100" fill="none" xmlns="http://www.w3.org/2000/svg">
<circle cx="50" cy="50" r="50" fill="#DAF6E7"/>
<g clip-path="url(#clip0_18_3599)">
<path d="M45.5989 21.9595H49.1647V25.5239H45.5989V21.9595Z" fill="#60F7A6"/>
<path d="M29.2856 25.6338C30.331 25.6338 31.1783 24.7867 31.1783 23.7417C31.1783 22.6968 30.331 21.8497 29.2856 21.8497C28.2403 21.8497 27.3929 22.6968 27.3929 23.7417C27.3929 24.7867 28.2403 25.6338 29.2856 25.6338Z" fill="#FFEB17"/>
<path d="M65.4779 25.6338C66.5232 25.6338 67.3706 24.7867 67.3706 23.7417C67.3706 22.6968 66.5232 21.8497 65.4779 21.8497C64.4326 21.8497 63.5852 22.6968 63.5852 23.7417C63.5852 24.7867 64.4326 25.6338 65.4779 25.6338Z" fill="#FFEB17"/>
<path d="M24.5261 59.6032C23.048 59.6032 21.8498 58.4075 21.8498 56.9325V31.5976C21.8498 30.1225 23.048 28.9268 24.5261 28.9268H70.2376C71.7157 28.9268 72.9139 30.1225 72.9139 31.5976V59.6033H24.5261V59.6032Z" fill="#85BB72"/>
<path d="M72.9138 31.5976C72.9138 30.1225 71.7156 28.9268 70.2376 28.9268H24.526C23.0479 28.9268 21.8496 30.1225 21.8496 31.5976V52.5896H72.9138V31.5976Z" fill="#85BB72"/>
<path d="M70.2375 28.9268H65.7063C67.1844 28.9268 68.3826 30.1225 68.3826 31.5976V52.5896H72.9138V31.5976C72.9138 30.1225 71.7156 28.9268 70.2375 28.9268Z" fill="#85BB72"/>
<path d="M42.3663 66.6411L43.0996 59.6032H50.4572V68.2029L42.3663 66.6411Z" fill="#85BB72"/>
<path d="M50.0148 69.7648H37.3884C37.3884 68.0397 38.787 66.6411 40.5122 66.6411H50.0148V69.7648Z" fill="#85BB72"/>
<path d="M51.6542 45.8284L56.031 40.7003L47.3817 25.4811L38.7325 40.7003L43.1092 45.8284L47.3817 50.3759L51.6542 45.8284Z" fill="#FFEB17"/>
<path d="M41.7752 51.478V46.9868C41.7752 46.347 42.2938 45.8284 42.9336 45.8284H51.8299C52.4697 45.8284 52.9884 46.347 52.9884 46.9868V51.478C52.9884 52.099 52.4849 52.6024 51.8639 52.6024H42.8996C42.2786 52.6024 41.7752 52.099 41.7752 51.478Z" fill="#6B78E3"/>
<path d="M47.3817 41.1756C48.4378 41.1756 49.2938 40.319 49.2938 39.2623C49.2938 38.2056 48.4378 37.349 47.3817 37.349C46.3257 37.349 45.4697 38.2056 45.4697 39.2623C45.4697 40.319 46.3257 41.1756 47.3817 41.1756Z" fill="#F7D600"/>
<path d="M49.5044 56.1296C48.8412 56.1296 48.3035 56.6673 48.3035 57.3305V76.9495C48.3035 77.6128 48.8412 78.1504 49.5044 78.1504H56.5368V56.1296H49.5044Z" fill="#60F7A6"/>
<path d="M76.9495 56.1297H74.452H70.2745H54.5733V78.1504H76.9496C77.6128 78.1504 78.1505 77.6128 78.1505 76.9495V57.3305C78.1504 56.6674 77.6128 56.1297 76.9495 56.1297Z" fill="#6B78E3"/>
<path d="M76.9495 56.1297H74.452H72.4183C73.0814 56.1297 73.6192 56.6673 73.6192 57.3305V76.9495C73.6192 77.6128 73.0815 78.1504 72.4183 78.1504H76.9495C77.6127 78.1504 78.1504 77.6128 78.1504 76.9495V57.3305C78.1504 56.6674 77.6128 56.1297 76.9495 56.1297Z" fill="#616CCF"/>
<path d="M78.7214 49.7754C78.3896 49.4433 77.8516 49.4432 77.5199 49.775L76.2873 51.0071C75.9554 51.3389 75.9553 51.8767 76.2869 52.2085C76.4529 52.3746 76.6704 52.4575 76.8879 52.4575C77.1053 52.4575 77.3227 52.3747 77.4885 52.2089L78.7211 50.9768C79.0528 50.6451 79.0529 50.1073 78.7214 49.7754Z" fill="#60F7A6"/>
<path d="M77.5323 53.0483L74.452 56.1298L66.2293 64.3559L64.1436 62.2634L70.2746 56.1299L75.4465 50.9559C75.6652 50.7381 76.0189 50.7388 76.2367 50.9573L77.5336 52.2586C77.7515 52.4769 77.7508 52.8305 77.5323 53.0483Z" fill="#4F5AC2"/>
<path d="M65.1864 63.3095L66.2293 64.3558C66.2293 64.3558 64.6954 65.7257 63.0172 65.743L62.7452 65.4701C62.7686 63.7925 64.1435 62.2631 64.1435 62.2631L65.1864 63.3095Z" fill="#60F7A6"/>
<path d="M76.9495 55.2802H76.5025L78.1319 53.65C78.7156 53.0687 78.6185 52.174 78.0873 51.6103L78.721 50.9769C79.4979 50.2004 78.2966 48.9983 77.5198 49.7751L76.8876 50.4069C76.3312 49.8389 75.427 49.776 74.8454 50.3551L73.7633 51.4377V31.5976C73.7633 29.6564 72.1816 28.0772 70.2375 28.0772H49.8344L48.8662 26.3735C49.937 26.4502 50.1392 25.448 50.0142 24.5914H62.871C63.2297 25.6884 64.2623 26.4834 65.4778 26.4834C66.99 26.4834 68.2202 25.2535 68.2202 23.7417C68.2202 22.23 66.99 21 65.4778 21C64.2623 21 63.2295 21.795 62.871 22.892H50.0142C50.1058 22.269 50.0474 21.1099 49.1646 21.1099H45.5988C44.7278 21.1099 44.6613 22.2544 44.7492 22.892H31.8924C31.5339 21.7951 30.5011 21 29.2856 21C27.7734 21 26.5433 22.23 26.5433 23.7416C26.5433 25.2533 27.7735 26.4833 29.2856 26.4833C30.5011 26.4833 31.5338 25.6883 31.8924 24.5912H44.7493C44.6242 25.4479 44.8266 26.4501 45.8974 26.3734L44.9292 28.0771H24.5259C22.5817 28.0772 21 29.6564 21 31.5976V56.9325C21 58.8737 22.5817 60.4528 24.5259 60.4528H42.1569L41.6005 65.7914H40.512C38.321 65.7914 36.5386 67.5738 36.5386 69.7647C36.5386 70.2341 36.919 70.6144 37.3882 70.6144H47.4537V76.9496C47.4537 78.0802 48.3735 79.0001 49.5042 79.0001H76.9493C78.0802 79 79 78.0802 79 76.9496V57.3305C79 56.2 78.0802 55.2802 76.9495 55.2802ZM75.8405 51.7632L76.7267 52.6524L66.2301 63.1532C65.9347 62.8569 65.6394 62.5605 65.3439 62.2642L75.8405 51.7632ZM64.2448 63.5684L64.9236 64.2493C64.5838 64.4558 64.1547 64.6721 63.6959 64.7942C63.8195 64.3349 64.037 63.9069 64.2448 63.5684ZM70.2376 29.7765C71.2449 29.7765 72.0642 30.5934 72.0642 31.5976V51.74H53.8185C53.8185 49.547 53.838 48.538 53.838 46.9869C53.838 46.3636 53.5525 45.8058 53.1054 45.4371L56.6774 41.252C56.9096 40.98 56.9465 40.5915 56.7697 40.2806L50.8001 29.7765H70.2376ZM42.821 51.74C42.708 51.7059 42.6248 51.6021 42.6248 51.478V46.9868C42.6248 46.7335 42.9094 46.6497 43.1093 46.6779H51.6544C51.8542 46.6497 52.1388 46.7334 52.1388 46.9868V51.478C52.1388 51.602 52.0556 51.7059 51.9425 51.74H42.821ZM46.5321 28.6956V36.6338C45.4239 36.9933 44.6202 38.0355 44.6202 39.2624C44.6202 40.7858 45.859 42.0253 47.3817 42.0253C48.9045 42.0253 50.1433 40.7859 50.1433 39.2624C50.1433 38.0355 49.3396 36.9933 48.2313 36.6338V28.6956L54.9979 40.6021L51.2623 44.9789H43.5011L39.7655 40.6021L46.5321 28.6956ZM47.3817 38.1987C47.9675 38.1987 48.4441 38.6758 48.4441 39.2624C48.4441 39.849 47.9675 40.3261 47.3817 40.3261C46.796 40.3261 46.3194 39.849 46.3194 39.2624C46.3194 38.6758 46.796 38.1987 47.3817 38.1987ZM65.4778 22.6992C66.053 22.6992 66.5209 23.1668 66.5209 23.7416C66.5209 24.3164 66.053 24.784 65.4778 24.784C64.9027 24.784 64.4347 24.3164 64.4347 23.7416C64.4347 23.1668 64.9027 22.6992 65.4778 22.6992ZM46.4485 22.8091H48.3151V24.6743H46.4485V22.8091ZM29.2856 24.7842C28.7104 24.7842 28.2425 24.3165 28.2425 23.7417C28.2425 23.167 28.7104 22.6992 29.2856 22.6992C29.8607 22.6992 30.3287 23.1668 30.3287 23.7416C30.3287 24.3164 29.8607 24.7842 29.2856 24.7842ZM24.5259 29.7765H43.9634L37.9939 40.2805C37.8172 40.5914 37.8541 40.9799 38.0863 41.2519L41.6583 45.4369C41.2112 45.8055 40.9256 46.3634 40.9256 46.9868C40.9256 48.5389 40.9451 49.9805 40.9451 51.7399H22.6992V31.5976C22.6992 30.5934 23.5187 29.7765 24.5259 29.7765ZM22.6992 56.9326V53.4392H42.681C42.7529 53.4471 42.8257 53.452 42.8996 53.452H51.8639C51.9379 53.452 52.0107 53.4471 52.0826 53.4392H71.7627L69.9225 55.2802H49.5044C48.3738 55.2802 47.4539 56.2 47.4539 57.3307V58.7538H43.0996H24.5259C23.5187 58.7537 22.6992 57.9367 22.6992 56.9326ZM43.8654 60.4529H47.4539V65.7915H43.309L43.8654 60.4529ZM38.4026 68.9153C38.7398 68.0809 39.5584 67.4907 40.5122 67.4907H42.3653C42.366 67.4907 42.3668 67.4909 42.3674 67.4909C42.3682 67.4909 42.369 67.4907 42.3698 67.4907H47.454V68.9153H38.4026ZM49.1531 76.9496V57.3305C49.1531 57.1368 49.3107 56.9793 49.5044 56.9793H53.7237V77.3008H49.5044C49.3107 77.3008 49.1531 77.1433 49.1531 76.9496ZM77.3008 76.9496C77.3008 77.1433 77.1431 77.3009 76.9494 77.3009H55.4229V56.9794H68.224L63.5427 61.6628C62.6106 62.5948 61.9141 64.151 61.8958 65.4584C61.8889 65.9509 62.5316 66.5929 63.0262 66.5929C64.3518 66.5791 65.8909 65.896 66.8303 64.9565L74.8041 56.9795H76.9496C77.1433 56.9795 77.301 57.1371 77.301 57.3308V76.9496H77.3008Z" fill="#060606"/>
<path d="M51.3688 71.3685C50.8995 71.3685 50.5192 71.7488 50.5192 72.2181V74.4294C50.5192 75.5279 52.2184 75.5279 52.2184 74.4294V72.2181C52.2184 71.7489 51.8381 71.3685 51.3688 71.3685Z" fill="#060606"/>
<path d="M51.3689 69.7097C52.4623 69.7097 52.4641 68.0105 51.3689 68.0105C50.2755 68.0105 50.2737 69.7097 51.3689 69.7097Z" fill="#060606"/>
<path d="M51.3689 64.5705C50.2755 64.5705 50.2737 66.2697 51.3689 66.2697C52.4622 66.2697 52.464 64.5705 51.3689 64.5705Z" fill="#060606"/>
<path d="M51.3688 59.0016C50.8995 59.0016 50.5192 59.3818 50.5192 59.8512V62.0625C50.5192 63.161 52.2184 63.161 52.2184 62.0625V59.8512C52.2184 59.3818 51.8381 59.0016 51.3688 59.0016Z" fill="#060606"/>
</g>
<defs>
<clipPath id="clip0_18_3599">
<rect width="58" height="58" fill="white" transform="translate(21 21)"/>
</clipPath>
</defs>
</svg>
