<svg width="0" height="0" class="hidden">
  <symbol fill="none" xmlns="http://www.w3.org/2000/svg" viewBox="0 0 20 20" id="linked_in">
    <path d="M5.23282 3.02042C5.23282 4.24979 4.23827 5.2464 3.01143 5.2464C1.78459 5.2464 0.790039 4.24979 0.790039 3.02042C0.790039 1.79104 1.78459 0.794434 3.01143 0.794434C4.23827 0.794434 5.23282 1.79104 5.23282 3.02042Z" fill="#F8F8F8"></path>
    <path d="M1.09382 6.88259H4.89107V19.2111H1.09382V6.88259Z" fill="#F8F8F8"></path>
    <path d="M11.0046 6.88259H7.20739V19.2111H11.0046C11.0046 19.2111 11.0046 15.3299 11.0046 12.9032C11.0046 11.4467 11.4688 9.98374 13.321 9.98374C15.4141 9.98374 15.4015 11.8899 15.3918 13.3666C15.379 15.2968 15.4095 17.2666 15.4095 19.2111H19.2067V12.7044C19.1745 8.54966 18.1641 6.63526 14.8399 6.63526C12.8657 6.63526 11.642 7.59553 11.0046 8.46431V6.88259Z" fill="#F8F8F8"></path>
  </symbol>
  <symbol id="menu" enable-background="new 0 0 24 24" xmlns="http://www.w3.org/2000/svg" viewBox="0 0 24 24">
    <g>
      <path d="m21.5 24h-19c-1.379 0-2.5-1.122-2.5-2.5v-19c0-1.378 1.121-2.5 2.5-2.5h19c1.379 0 2.5 1.122 2.5 2.5v19c0 1.378-1.121 2.5-2.5 2.5zm-19-23c-.827 0-1.5.673-1.5 1.5v19c0 .827.673 1.5 1.5 1.5h19c.827 0 1.5-.673 1.5-1.5v-19c0-.827-.673-1.5-1.5-1.5z"></path>
    </g>
    <g>
      <path d="m16.5 8h-9c-.276 0-.5-.224-.5-.5s.224-.5.5-.5h9c.276 0 .5.224.5.5s-.224.5-.5.5z"></path>
    </g>
    <g>
      <path d="m16.5 12.5h-9c-.276 0-.5-.224-.5-.5s.224-.5.5-.5h9c.276 0 .5.224.5.5s-.224.5-.5.5z"></path>
    </g>
    <g>
      <path d="m16.5 17h-9c-.276 0-.5-.224-.5-.5s.224-.5.5-.5h9c.276 0 .5.224.5.5s-.224.5-.5.5z"></path>
    </g>
  </symbol>
  <symbol version="1.1" id="quotation" xmlns="http://www.w3.org/2000/svg" xmlns:xlink="http://www.w3.org/1999/xlink" x="0px" y="0px" xml:space="preserve" viewBox="0 0 310.284 310.284">
    <path d="M155.142,0C69.597,0,0,69.597,0,155.142s69.597,155.142,155.142,155.142s155.142-69.597,155.142-155.142
	S240.688,0,155.142,0z M79.171,231.401c-1.746,1.182-6.129,2.222-8.693-0.625l-4.731-5.95c-2.288-3.869,0.483-7.457,2.277-8.945
	c8.529-7.075,14.731-12.548,18.601-16.419c7.589-7.981,13.199-15.97,16.903-23.935c0.847-1.821-1.315-2.977-2.438-3.345
	c-27.967-9.166-41.955-25.325-41.955-48.474c0-13.639,4.53-24.722,13.585-33.242c9.059-8.525,20.407-12.785,34.041-12.785
	c12.146,0,22.909,5.539,32.283,16.621c9.165,10.438,13.744,21.735,13.744,33.881C152.789,163.78,128.251,198.185,79.171,231.401z
	 M185.61,231.401c-1.746,1.182-6.129,2.222-8.693-0.625l-4.731-5.95c-2.288-3.869,0.483-7.457,2.277-8.945
	c8.528-7.075,14.731-12.548,18.601-16.419c7.589-7.981,13.199-15.97,16.904-23.935c0.847-1.821-1.315-2.977-2.438-3.345
	c-27.967-9.166-41.955-25.325-41.955-48.474c0-13.639,4.53-24.722,13.585-33.242c9.06-8.525,20.407-12.785,34.041-12.785
	c12.146,0,22.909,5.539,32.283,16.621c9.164,10.438,13.744,21.735,13.744,33.881C259.228,163.78,234.69,198.185,185.61,231.401z"></path>
    <g></g>
    <g></g>
    <g></g>
    <g></g>
    <g></g>
    <g></g>
    <g></g>
    <g></g>
    <g></g>
    <g></g>
    <g></g>
    <g></g>
    <g></g>
    <g></g>
    <g></g>
  </symbol>
  <symbol fill="none" xmlns="http://www.w3.org/2000/svg" viewBox="0 0 100 100" id="Special">
    <circle cx="50" cy="50" r="50" fill="#DAF6E7"></circle>
    <g clip-path="url(#clip0_18_3599)">
      <path d="M45.5989 21.9595H49.1647V25.5239H45.5989V21.9595Z" fill="#60F7A6"></path>
      <path d="M29.2856 25.6338C30.331 25.6338 31.1783 24.7867 31.1783 23.7417C31.1783 22.6968 30.331 21.8497 29.2856 21.8497C28.2403 21.8497 27.3929 22.6968 27.3929 23.7417C27.3929 24.7867 28.2403 25.6338 29.2856 25.6338Z" fill="#FFEB17"></path>
      <path d="M65.4779 25.6338C66.5232 25.6338 67.3706 24.7867 67.3706 23.7417C67.3706 22.6968 66.5232 21.8497 65.4779 21.8497C64.4326 21.8497 63.5852 22.6968 63.5852 23.7417C63.5852 24.7867 64.4326 25.6338 65.4779 25.6338Z" fill="#FFEB17"></path>
      <path d="M24.5261 59.6032C23.048 59.6032 21.8498 58.4075 21.8498 56.9325V31.5976C21.8498 30.1225 23.048 28.9268 24.5261 28.9268H70.2376C71.7157 28.9268 72.9139 30.1225 72.9139 31.5976V59.6033H24.5261V59.6032Z" fill="#85BB72"></path>
      <path d="M72.9138 31.5976C72.9138 30.1225 71.7156 28.9268 70.2376 28.9268H24.526C23.0479 28.9268 21.8496 30.1225 21.8496 31.5976V52.5896H72.9138V31.5976Z" fill="#85BB72"></path>
      <path d="M70.2375 28.9268H65.7063C67.1844 28.9268 68.3826 30.1225 68.3826 31.5976V52.5896H72.9138V31.5976C72.9138 30.1225 71.7156 28.9268 70.2375 28.9268Z" fill="#85BB72"></path>
      <path d="M42.3663 66.6411L43.0996 59.6032H50.4572V68.2029L42.3663 66.6411Z" fill="#85BB72"></path>
      <path d="M50.0148 69.7648H37.3884C37.3884 68.0397 38.787 66.6411 40.5122 66.6411H50.0148V69.7648Z" fill="#85BB72"></path>
      <path d="M51.6542 45.8284L56.031 40.7003L47.3817 25.4811L38.7325 40.7003L43.1092 45.8284L47.3817 50.3759L51.6542 45.8284Z" fill="#FFEB17"></path>
      <path d="M41.7752 51.478V46.9868C41.7752 46.347 42.2938 45.8284 42.9336 45.8284H51.8299C52.4697 45.8284 52.9884 46.347 52.9884 46.9868V51.478C52.9884 52.099 52.4849 52.6024 51.8639 52.6024H42.8996C42.2786 52.6024 41.7752 52.099 41.7752 51.478Z" fill="#6B78E3"></path>
      <path d="M47.3817 41.1756C48.4378 41.1756 49.2938 40.319 49.2938 39.2623C49.2938 38.2056 48.4378 37.349 47.3817 37.349C46.3257 37.349 45.4697 38.2056 45.4697 39.2623C45.4697 40.319 46.3257 41.1756 47.3817 41.1756Z" fill="#F7D600"></path>
      <path d="M49.5044 56.1296C48.8412 56.1296 48.3035 56.6673 48.3035 57.3305V76.9495C48.3035 77.6128 48.8412 78.1504 49.5044 78.1504H56.5368V56.1296H49.5044Z" fill="#60F7A6"></path>
      <path d="M76.9495 56.1297H74.452H70.2745H54.5733V78.1504H76.9496C77.6128 78.1504 78.1505 77.6128 78.1505 76.9495V57.3305C78.1504 56.6674 77.6128 56.1297 76.9495 56.1297Z" fill="#6B78E3"></path>
      <path d="M76.9495 56.1297H74.452H72.4183C73.0814 56.1297 73.6192 56.6673 73.6192 57.3305V76.9495C73.6192 77.6128 73.0815 78.1504 72.4183 78.1504H76.9495C77.6127 78.1504 78.1504 77.6128 78.1504 76.9495V57.3305C78.1504 56.6674 77.6128 56.1297 76.9495 56.1297Z" fill="#616CCF"></path>
      <path d="M78.7214 49.7754C78.3896 49.4433 77.8516 49.4432 77.5199 49.775L76.2873 51.0071C75.9554 51.3389 75.9553 51.8767 76.2869 52.2085C76.4529 52.3746 76.6704 52.4575 76.8879 52.4575C77.1053 52.4575 77.3227 52.3747 77.4885 52.2089L78.7211 50.9768C79.0528 50.6451 79.0529 50.1073 78.7214 49.7754Z" fill="#60F7A6"></path>
      <path d="M77.5323 53.0483L74.452 56.1298L66.2293 64.3559L64.1436 62.2634L70.2746 56.1299L75.4465 50.9559C75.6652 50.7381 76.0189 50.7388 76.2367 50.9573L77.5336 52.2586C77.7515 52.4769 77.7508 52.8305 77.5323 53.0483Z" fill="#4F5AC2"></path>
      <path d="M65.1864 63.3095L66.2293 64.3558C66.2293 64.3558 64.6954 65.7257 63.0172 65.743L62.7452 65.4701C62.7686 63.7925 64.1435 62.2631 64.1435 62.2631L65.1864 63.3095Z" fill="#60F7A6"></path>
      <path d="M76.9495 55.2802H76.5025L78.1319 53.65C78.7156 53.0687 78.6185 52.174 78.0873 51.6103L78.721 50.9769C79.4979 50.2004 78.2966 48.9983 77.5198 49.7751L76.8876 50.4069C76.3312 49.8389 75.427 49.776 74.8454 50.3551L73.7633 51.4377V31.5976C73.7633 29.6564 72.1816 28.0772 70.2375 28.0772H49.8344L48.8662 26.3735C49.937 26.4502 50.1392 25.448 50.0142 24.5914H62.871C63.2297 25.6884 64.2623 26.4834 65.4778 26.4834C66.99 26.4834 68.2202 25.2535 68.2202 23.7417C68.2202 22.23 66.99 21 65.4778 21C64.2623 21 63.2295 21.795 62.871 22.892H50.0142C50.1058 22.269 50.0474 21.1099 49.1646 21.1099H45.5988C44.7278 21.1099 44.6613 22.2544 44.7492 22.892H31.8924C31.5339 21.7951 30.5011 21 29.2856 21C27.7734 21 26.5433 22.23 26.5433 23.7416C26.5433 25.2533 27.7735 26.4833 29.2856 26.4833C30.5011 26.4833 31.5338 25.6883 31.8924 24.5912H44.7493C44.6242 25.4479 44.8266 26.4501 45.8974 26.3734L44.9292 28.0771H24.5259C22.5817 28.0772 21 29.6564 21 31.5976V56.9325C21 58.8737 22.5817 60.4528 24.5259 60.4528H42.1569L41.6005 65.7914H40.512C38.321 65.7914 36.5386 67.5738 36.5386 69.7647C36.5386 70.2341 36.919 70.6144 37.3882 70.6144H47.4537V76.9496C47.4537 78.0802 48.3735 79.0001 49.5042 79.0001H76.9493C78.0802 79 79 78.0802 79 76.9496V57.3305C79 56.2 78.0802 55.2802 76.9495 55.2802ZM75.8405 51.7632L76.7267 52.6524L66.2301 63.1532C65.9347 62.8569 65.6394 62.5605 65.3439 62.2642L75.8405 51.7632ZM64.2448 63.5684L64.9236 64.2493C64.5838 64.4558 64.1547 64.6721 63.6959 64.7942C63.8195 64.3349 64.037 63.9069 64.2448 63.5684ZM70.2376 29.7765C71.2449 29.7765 72.0642 30.5934 72.0642 31.5976V51.74H53.8185C53.8185 49.547 53.838 48.538 53.838 46.9869C53.838 46.3636 53.5525 45.8058 53.1054 45.4371L56.6774 41.252C56.9096 40.98 56.9465 40.5915 56.7697 40.2806L50.8001 29.7765H70.2376ZM42.821 51.74C42.708 51.7059 42.6248 51.6021 42.6248 51.478V46.9868C42.6248 46.7335 42.9094 46.6497 43.1093 46.6779H51.6544C51.8542 46.6497 52.1388 46.7334 52.1388 46.9868V51.478C52.1388 51.602 52.0556 51.7059 51.9425 51.74H42.821ZM46.5321 28.6956V36.6338C45.4239 36.9933 44.6202 38.0355 44.6202 39.2624C44.6202 40.7858 45.859 42.0253 47.3817 42.0253C48.9045 42.0253 50.1433 40.7859 50.1433 39.2624C50.1433 38.0355 49.3396 36.9933 48.2313 36.6338V28.6956L54.9979 40.6021L51.2623 44.9789H43.5011L39.7655 40.6021L46.5321 28.6956ZM47.3817 38.1987C47.9675 38.1987 48.4441 38.6758 48.4441 39.2624C48.4441 39.849 47.9675 40.3261 47.3817 40.3261C46.796 40.3261 46.3194 39.849 46.3194 39.2624C46.3194 38.6758 46.796 38.1987 47.3817 38.1987ZM65.4778 22.6992C66.053 22.6992 66.5209 23.1668 66.5209 23.7416C66.5209 24.3164 66.053 24.784 65.4778 24.784C64.9027 24.784 64.4347 24.3164 64.4347 23.7416C64.4347 23.1668 64.9027 22.6992 65.4778 22.6992ZM46.4485 22.8091H48.3151V24.6743H46.4485V22.8091ZM29.2856 24.7842C28.7104 24.7842 28.2425 24.3165 28.2425 23.7417C28.2425 23.167 28.7104 22.6992 29.2856 22.6992C29.8607 22.6992 30.3287 23.1668 30.3287 23.7416C30.3287 24.3164 29.8607 24.7842 29.2856 24.7842ZM24.5259 29.7765H43.9634L37.9939 40.2805C37.8172 40.5914 37.8541 40.9799 38.0863 41.2519L41.6583 45.4369C41.2112 45.8055 40.9256 46.3634 40.9256 46.9868C40.9256 48.5389 40.9451 49.9805 40.9451 51.7399H22.6992V31.5976C22.6992 30.5934 23.5187 29.7765 24.5259 29.7765ZM22.6992 56.9326V53.4392H42.681C42.7529 53.4471 42.8257 53.452 42.8996 53.452H51.8639C51.9379 53.452 52.0107 53.4471 52.0826 53.4392H71.7627L69.9225 55.2802H49.5044C48.3738 55.2802 47.4539 56.2 47.4539 57.3307V58.7538H43.0996H24.5259C23.5187 58.7537 22.6992 57.9367 22.6992 56.9326ZM43.8654 60.4529H47.4539V65.7915H43.309L43.8654 60.4529ZM38.4026 68.9153C38.7398 68.0809 39.5584 67.4907 40.5122 67.4907H42.3653C42.366 67.4907 42.3668 67.4909 42.3674 67.4909C42.3682 67.4909 42.369 67.4907 42.3698 67.4907H47.454V68.9153H38.4026ZM49.1531 76.9496V57.3305C49.1531 57.1368 49.3107 56.9793 49.5044 56.9793H53.7237V77.3008H49.5044C49.3107 77.3008 49.1531 77.1433 49.1531 76.9496ZM77.3008 76.9496C77.3008 77.1433 77.1431 77.3009 76.9494 77.3009H55.4229V56.9794H68.224L63.5427 61.6628C62.6106 62.5948 61.9141 64.151 61.8958 65.4584C61.8889 65.9509 62.5316 66.5929 63.0262 66.5929C64.3518 66.5791 65.8909 65.896 66.8303 64.9565L74.8041 56.9795H76.9496C77.1433 56.9795 77.301 57.1371 77.301 57.3308V76.9496H77.3008Z" fill="#060606"></path>
      <path d="M51.3688 71.3685C50.8995 71.3685 50.5192 71.7488 50.5192 72.2181V74.4294C50.5192 75.5279 52.2184 75.5279 52.2184 74.4294V72.2181C52.2184 71.7489 51.8381 71.3685 51.3688 71.3685Z" fill="#060606"></path>
      <path d="M51.3689 69.7097C52.4623 69.7097 52.4641 68.0105 51.3689 68.0105C50.2755 68.0105 50.2737 69.7097 51.3689 69.7097Z" fill="#060606"></path>
      <path d="M51.3689 64.5705C50.2755 64.5705 50.2737 66.2697 51.3689 66.2697C52.4622 66.2697 52.464 64.5705 51.3689 64.5705Z" fill="#060606"></path>
      <path d="M51.3688 59.0016C50.8995 59.0016 50.5192 59.3818 50.5192 59.8512V62.0625C50.5192 63.161 52.2184 63.161 52.2184 62.0625V59.8512C52.2184 59.3818 51.8381 59.0016 51.3688 59.0016Z" fill="#060606"></path>
    </g>
    <defs>
      <clipPath id="clip0_18_3599">
        <rect width="58" height="58" fill="white" transform="translate(21 21)"></rect>
      </clipPath>
    </defs>
  </symbol>
  <symbol fill="none" xmlns="http://www.w3.org/2000/svg" viewBox="0 0 15 14" id="Star">
    <path d="M5.2463 2.41053C5.99789 0.241961 9.098 0.241961 9.84959 2.41053C10.1747 3.34857 11.0624 3.98901 12.0552 3.98901H12.3138C14.5289 3.98901 15.4114 6.85241 13.5807 8.09936C12.7406 8.67156 12.3907 9.74258 12.7236 10.703C13.4482 12.7936 11.098 14.6265 9.26926 13.3809L8.9199 13.143C8.09215 12.5792 7.00374 12.5792 6.17599 13.143L5.82663 13.3809C3.99793 14.6265 1.64774 12.7936 2.3723 10.703C2.70515 9.74258 2.35525 8.67156 1.51517 8.09936C-0.31552 6.85241 0.567023 3.98901 2.78204 3.98901H3.0407C4.03349 3.98901 4.92119 3.34857 5.2463 2.41053Z" fill="#FBB040"></path>
  </symbol>
  <symbol fill="none" xmlns="http://www.w3.org/2000/svg" viewBox="0 0 100 100" id="Tiny">
    <circle cx="50" cy="50" r="50" fill="#DAF6E7"></circle>
    <path d="M28.2858 85.3572H72.0001C72.0001 74.4286 68.7858 65.4286 64.9287 61.5715C63.1868 59.8545 61.1692 58.442 58.9598 57.3929C60.3554 56.6462 61.5119 55.5206 62.2961 54.1456C63.0802 52.7707 63.4602 51.2022 63.3923 49.6208H63.5369C63.9423 49.667 64.3528 49.6298 64.7433 49.5115C65.1338 49.3932 65.4959 49.1963 65.8075 48.9329C66.1191 48.6695 66.3735 48.3452 66.5552 47.9799C66.7368 47.6145 66.8419 47.2159 66.8638 46.8085C66.8858 46.4011 66.8242 45.9935 66.6828 45.6108C66.5415 45.2281 66.3234 44.8783 66.0419 44.5829C65.7604 44.2876 65.4215 44.0529 65.046 43.8934C64.6705 43.7338 64.2663 43.6527 63.8583 43.6551C63.642 43.6571 63.4266 43.6819 63.2155 43.729L62.3573 43.9186V32.0001C62.3573 29.1016 61.2059 26.3219 59.1563 24.2724C57.1068 22.2229 54.3271 21.0715 51.4287 21.0715H48.8573C45.9588 21.0715 43.1791 22.2229 41.1296 24.2724C39.0801 26.3219 37.9287 29.1016 37.9287 32.0001V43.9283L37.0705 43.7386C36.8594 43.6915 36.6439 43.6667 36.4276 43.6647C36.0196 43.6624 35.6155 43.7434 35.24 43.903C34.8645 44.0626 34.5255 44.2972 34.2441 44.5926C33.9626 44.8879 33.7445 45.2377 33.6031 45.6204C33.4618 46.0032 33.4002 46.4108 33.4221 46.8182C33.4441 47.2256 33.5491 47.6242 33.7308 47.9895C33.9124 48.3548 34.1668 48.6792 34.4784 48.9426C34.79 49.2059 35.1522 49.4028 35.5427 49.5211C35.9331 49.6394 36.3437 49.6766 36.749 49.6304H36.8937C36.8276 51.2102 37.2084 52.7767 37.9925 54.1498C38.7766 55.5229 39.932 56.647 41.3262 57.3929C39.1168 58.442 37.0991 59.8545 35.3573 61.5715C31.5001 65.4286 28.2858 74.4286 28.2858 85.3572Z" fill="#FFB685"></path>
    <path d="M63.8712 43.6647C63.6549 43.6667 63.4394 43.6915 63.2283 43.7386L62.3701 43.9283V32.0001C62.3723 29.1747 61.2802 26.4583 59.3229 24.4208C57.3657 22.3832 54.6954 21.1829 51.8722 21.0715C54.0109 21.1852 56.0243 22.1156 57.4969 23.6707C58.9695 25.2258 59.7888 27.2869 59.7858 29.4286V47.2904L60.3901 48.7658C60.9416 50.0947 60.9767 51.5817 60.4885 52.9351C60.0002 54.2885 59.024 55.4107 57.7512 56.0815C56.9187 56.5251 56.3304 57.0715 55.3597 57.0715H40.7894C40.9629 57.184 41.1429 57.2901 41.3262 57.3929C42.5335 58.0336 43.8808 58.3649 45.2476 58.3572H45.8294C46.1056 59.2868 46.6748 60.1023 47.4521 60.6822C48.2293 61.2621 49.1732 61.5754 50.1429 61.5754C51.1127 61.5754 52.0565 61.2621 52.8338 60.6822C53.6111 60.1023 54.1803 59.2868 54.4565 58.3572H55.0383C56.405 58.3649 57.7524 58.0336 58.9597 57.3929C60.3554 56.6462 61.5119 55.5206 62.296 54.1456C63.0802 52.7707 63.4602 51.2022 63.3922 49.6208H63.5369C63.9422 49.667 64.3528 49.6298 64.7433 49.5115C65.1337 49.3932 65.4959 49.1963 65.8075 48.9329C66.1191 48.6695 66.3735 48.3452 66.5552 47.9799C66.7368 47.6145 66.8418 47.2159 66.8638 46.8085C66.8857 46.4011 66.8241 45.9935 66.6828 45.6108C66.5415 45.2281 66.3233 44.8783 66.0418 44.5829C65.7604 44.2876 65.4215 44.0529 65.0459 43.8934C64.6704 43.7338 64.2663 43.6527 63.8583 43.6551L63.8712 43.6647Z" fill="#E2895D"></path>
    <path d="M40.5001 34.5715V38.4286C40.5001 39.1106 40.2292 39.7647 39.7469 40.2469C39.2647 40.7292 38.6106 41.0001 37.9286 41.0001V34.5715H40.5001Z" fill="#D81A1A"></path>
    <path d="M62.3573 34.5715V41.0001C61.6753 41.0001 61.0212 40.7292 60.539 40.2469C60.0567 39.7647 59.7858 39.1106 59.7858 38.4286V34.5715H62.3573Z" fill="#D81A1A"></path>
    <path d="M50.1431 78.9285C47.7034 74.8014 46.1027 66.4346 45.6431 62.645C45.8497 62.6418 46.0526 62.5889 46.2345 62.4907L48.4845 61.2885C48.5755 61.3797 48.6838 61.4516 48.803 61.5002C48.9223 61.5488 49.05 61.573 49.1788 61.5714H51.1074C51.363 61.5712 51.6081 61.4694 51.7888 61.2885L54.0388 62.4907C54.2207 62.5889 54.4235 62.6418 54.6302 62.645C54.1834 66.4346 52.5827 74.8014 50.1431 78.9285Z" fill="#FFB8F5"></path>
    <path d="M63.6431 85.3572H50.1431V78.9287C57.8574 73.143 59.7859 65.4287 59.7859 65.4287L57.5359 62.8572L59.7859 62.2144V57.8044C61.6772 58.7986 63.4104 60.0681 64.9288 61.5715C68.7859 65.4287 72.0002 74.4287 72.0002 85.3572H63.6431Z" fill="#85BB72"></path>
    <path d="M66.8573 32C67.1983 32 67.5253 32.1355 67.7664 32.3766C68.0075 32.6177 68.143 32.9447 68.143 33.2857C68.143 33.6267 68.0075 33.9537 67.7664 34.1949C67.5253 34.436 67.1983 34.5714 66.8573 34.5714H33.4287C33.0877 34.5714 32.7607 34.436 32.5196 34.1949C32.2785 33.9537 32.143 33.6267 32.143 33.2857C32.143 32.9447 32.2785 32.6177 32.5196 32.3766C32.7607 32.1355 33.0877 32 33.4287 32H66.8573Z" fill="#85BB72"></path>
    <path d="M61.4123 14.6429C61.7735 14.6434 62.1306 14.72 62.4603 14.8677C62.7899 15.0155 63.0847 15.231 63.3255 15.5003C63.5663 15.7696 63.7476 16.0866 63.8577 16.4306C63.9678 16.7747 64.0042 17.1381 63.9644 17.4971L62.3573 32H37.9287L36.3216 17.4971C36.2817 17.1365 36.3185 16.7714 36.4297 16.426C36.541 16.0806 36.724 15.7627 36.9669 15.4931C37.2098 15.2235 37.507 15.0084 37.839 14.8618C38.1709 14.7153 38.5301 14.6407 38.893 14.6429H61.4123Z" fill="#85BB72"></path>
    <path d="M59.7859 57.8044V62.2144L57.5359 62.8572L59.7859 65.4286C59.7859 65.4286 57.8574 73.1429 50.1431 78.9286C52.5827 74.8015 54.1834 66.4347 54.6431 62.6451C54.9841 62.6451 55.3111 62.5096 55.5522 62.2685C55.7933 62.0274 55.9288 61.7003 55.9288 61.3593V58.3154C56.9896 58.2064 58.0191 57.892 58.9598 57.3897C59.2202 57.5119 59.4966 57.6501 59.7859 57.8044Z" fill="#85BB72"></path>
    <path d="M54.643 62.645C54.4363 62.6419 54.2334 62.589 54.0515 62.4907L51.8015 61.2886C51.9777 61.1058 52.0747 60.861 52.0715 60.6072V59.3214C52.0715 59.0657 51.9699 58.8204 51.7891 58.6396C51.6083 58.4588 51.363 58.3572 51.1072 58.3572H55.0383C55.3405 58.3572 55.6394 58.3411 55.9287 58.3122V61.3561C55.9291 61.5252 55.8961 61.6927 55.8317 61.8491C55.7673 62.0055 55.6727 62.1476 55.5532 62.2673C55.4338 62.387 55.2919 62.482 55.1357 62.5468C54.9795 62.6117 54.8121 62.645 54.643 62.645Z" fill="#D81A1A"></path>
    <path d="M52.0714 59.3215V60.6072C52.0714 60.863 51.9698 61.1082 51.7889 61.2891C51.6081 61.4699 51.3628 61.5715 51.1071 61.5715H49.1785C48.9228 61.5715 48.6775 61.4699 48.4967 61.2891C48.3158 61.1082 48.2142 60.863 48.2142 60.6072V59.3215C48.2142 59.0657 48.3158 58.8205 48.4967 58.6396C48.6775 58.4588 48.9228 58.3572 49.1785 58.3572H51.1071C51.3628 58.3572 51.6081 58.4588 51.7889 58.6396C51.9698 58.8205 52.0714 59.0657 52.0714 59.3215Z" fill="#D81A1A"></path>
    <path d="M36.643 85.3572H28.2858C28.2858 74.4287 31.5001 65.4287 35.3573 61.5715C36.8756 60.0681 38.6088 58.7986 40.5001 57.8044V62.2144L42.7501 62.8572L40.5001 65.4287C40.5001 65.4287 42.4287 73.143 50.143 78.9287V85.3572H36.643Z" fill="#0AC05E" fill-opacity="0.5"></path>
    <path d="M45.643 62.645C45.302 62.645 44.9749 62.5095 44.7338 62.2684C44.4927 62.0273 44.3572 61.7003 44.3572 61.3593V58.3154C44.6465 58.3443 44.9455 58.3604 45.2476 58.3604H49.1787C48.9229 58.3604 48.6777 58.462 48.4968 58.6428C48.316 58.8236 48.2144 59.0689 48.2144 59.3246V60.6104C48.2146 60.866 48.3163 61.1111 48.4972 61.2918L46.2472 62.4939C46.0612 62.5931 45.8537 62.6449 45.643 62.645Z" fill="#D81A1A"></path>
    <path d="M45.6429 62.645C46.0897 66.4346 47.6904 74.8014 50.1429 78.9286C42.4286 73.1428 40.5001 65.4286 40.5001 65.4286L42.7501 62.8571L40.5001 62.2143V57.8043C40.7893 57.65 41.0658 57.5118 41.3261 57.3864C42.2669 57.8887 43.2964 58.2031 44.3572 58.3121V61.3561C44.3568 61.5252 44.3897 61.6927 44.4541 61.8491C44.5186 62.0054 44.6132 62.1475 44.7326 62.2673C44.8521 62.387 44.994 62.482 45.1502 62.5468C45.3064 62.6116 45.4738 62.645 45.6429 62.645Z" fill="#85BB72"></path>
    <path d="M50.1429 48.0715C52.4412 48.0715 53.2544 46.4965 53.2897 46.429L52.1422 45.8472C52.1229 45.8857 51.6215 46.7857 50.1429 46.7857C48.6644 46.7857 48.1629 45.8857 48.1437 45.8472L46.9962 46.429C47.0315 46.4965 47.8447 48.0715 50.1429 48.0715Z" fill="#110002"></path>
    <path d="M44.3572 42.2857H45.643V44.8571H44.3572V42.2857Z" fill="#110002"></path>
    <path d="M44.8459 38.8626C45.2107 38.9289 45.5363 39.1325 45.7556 39.4315L46.8195 38.7147C46.6088 38.4084 46.3364 38.1496 46.0197 37.9547C45.7031 37.7599 45.3493 37.6334 44.9809 37.5833C44.1806 37.5029 43.3738 37.8501 42.6184 38.6183L43.5248 39.5247C44.0038 39.049 44.4506 38.824 44.8459 38.8626Z" fill="#110002"></path>
    <path d="M54.6431 42.2857H55.9288V44.8571H54.6431V42.2857Z" fill="#110002"></path>
    <path d="M55.4401 38.8626C55.8386 38.824 56.2822 39.049 56.7611 39.5247L57.6676 38.6183C56.9026 37.8501 56.1054 37.5029 55.3051 37.5833C54.9367 37.6334 54.5828 37.7599 54.2662 37.9547C53.9496 38.1496 53.6772 38.4084 53.4665 38.7147L54.5304 39.4315C54.7497 39.1325 55.0752 38.9289 55.4401 38.8626Z" fill="#110002"></path>
    <path d="M49.5001 63.1785H50.7858V64.4642H49.5001V63.1785Z" fill="#110002"></path>
    <path d="M49.5001 67.0357H50.7858V68.3214H49.5001V67.0357Z" fill="#110002"></path>
    <path d="M72.6429 84.7143C72.5239 74.7918 69.6407 65.3675 65.3882 61.1182C63.874 59.6131 62.1479 58.3375 60.2646 57.3318C61.3933 56.5256 62.3213 55.4705 62.9768 54.2482C63.6323 53.0259 63.9977 51.6691 64.0446 50.2829C64.5483 50.2603 65.0417 50.1331 65.4936 49.9094C65.9454 49.6857 66.3457 49.3704 66.669 48.9836C66.9923 48.5967 67.2315 48.1468 67.3714 47.6625C67.5114 47.1781 67.5489 46.67 67.4818 46.1703C67.4146 45.6706 67.2441 45.1904 66.9812 44.7603C66.7183 44.3301 66.3687 43.9594 65.9547 43.6717C65.5407 43.384 65.0713 43.1856 64.5764 43.0892C64.0816 42.9928 63.5721 43.0005 63.0804 43.1118L63.0032 43.1279V35.2143H66.8604C67.3718 35.2143 67.8624 35.0111 68.2241 34.6494C68.5857 34.2877 68.7889 33.7972 68.7889 33.2857C68.7889 32.7742 68.5857 32.2837 68.2241 31.922C67.8624 31.5603 67.3718 31.3571 66.8604 31.3571H63.0739L64.6071 17.5679C64.6569 17.1186 64.6113 16.664 64.4734 16.2336C64.3355 15.8032 64.1084 15.4067 63.8069 15.07C63.5054 14.7333 63.1363 14.464 62.7236 14.2796C62.311 14.0952 61.8641 14 61.4121 14H38.8736C38.4216 14 37.9747 14.0952 37.5621 14.2796C37.1495 14.464 36.7803 14.7333 36.4788 15.07C36.1773 15.4067 35.9502 15.8032 35.8123 16.2336C35.6744 16.664 35.6289 17.1186 35.6786 17.5679L37.2118 31.3571H33.4286C32.9171 31.3571 32.4265 31.5603 32.0649 31.922C31.7032 32.2837 31.5 32.7742 31.5 33.2857C31.5 33.7972 31.7032 34.2877 32.0649 34.6494C32.4265 35.0111 32.9171 35.2143 33.4286 35.2143H37.2857V43.1279L37.2054 43.1118C36.9459 43.0526 36.6807 43.0224 36.4146 43.0218C35.4632 43.0178 34.5482 43.3874 33.8663 44.0509C33.1845 44.7145 32.7902 45.6191 32.7683 46.5703C32.7464 47.5215 33.0987 48.4433 33.7493 49.1376C34.3999 49.8318 35.2969 50.243 36.2475 50.2829C36.2959 51.6688 36.6619 53.025 37.3173 54.2472C37.9727 55.4693 38.8999 56.5246 40.0275 57.3318C38.1449 58.3386 36.4189 59.6141 34.9039 61.1182C30.6514 65.3675 27.7682 74.7918 27.6429 84.7143H27V86H73.2857V84.7143H72.6429ZM71.3571 84.7143H64.2857C64.1764 75.4539 61.7432 71.0825 61.6371 70.8929L60.5186 71.5357C60.5443 71.5775 62.8907 75.8364 63 84.7143H50.7857V79.25C58.3779 73.4225 60.3289 65.9107 60.4093 65.5925C60.4351 65.4916 60.436 65.3859 60.4119 65.2846C60.3879 65.1832 60.3395 65.0892 60.2711 65.0107L58.6864 63.2043L59.9721 62.8379C60.1055 62.7974 60.2222 62.7148 60.3045 62.6023C60.3868 62.4898 60.4304 62.3537 60.4286 62.2143V58.9068C61.9017 59.7741 63.261 60.8215 64.4754 62.0246C67.8214 65.3868 71.2221 73.6732 71.3571 84.7143ZM43.3736 62.6739C43.3426 62.5704 43.2859 62.4764 43.209 62.4006C43.132 62.3247 43.0372 62.2695 42.9332 62.24L41.1429 61.7289V58.1932L41.3229 58.1C42.0793 58.4695 42.8845 58.7293 43.7143 58.8714V61.3561C43.7141 61.6106 43.7643 61.8626 43.8619 62.0976C43.9595 62.3326 44.1027 62.5459 44.2832 62.7254C44.5059 62.9452 44.7782 63.1084 45.0771 63.2011C45.4436 65.9975 46.5171 72.0532 48.2914 76.5404C45.0594 73.5344 42.6287 69.7691 41.22 65.5861L43.2386 63.2814C43.3096 63.1993 43.3586 63.1005 43.3811 62.9942C43.4036 62.888 43.3988 62.7778 43.3671 62.6739H43.3736ZM58.9693 58.1032L59.1493 58.1964V61.7321L57.3654 62.2432C57.2614 62.2727 57.1666 62.3279 57.0896 62.4038C57.0126 62.4796 56.956 62.5736 56.925 62.6771C56.8938 62.7813 56.8895 62.8916 56.9126 62.9979C56.9356 63.1041 56.9852 63.2028 57.0568 63.2846L59.0786 65.5925C57.6706 69.775 55.2398 73.5393 52.0071 76.5436C53.7846 72.0596 54.8582 66.0039 55.2214 63.2043C55.5203 63.1116 55.7926 62.9484 56.0154 62.7286C56.1958 62.5492 56.339 62.3358 56.4367 62.1008C56.5343 61.8658 56.5845 61.6138 56.5843 61.3593V58.8714C57.4095 58.7291 58.2103 58.4705 58.9629 58.1032H58.9693ZM48.465 62.0375C48.6858 62.1514 48.9302 62.212 49.1786 62.2143H51.1071C51.3577 62.213 51.6045 62.1524 51.8271 62.0375L53.7364 63.0596C53.7975 63.0918 53.8586 63.1175 53.9196 63.1432C53.4054 67.0486 52.0393 73.6314 50.1429 77.5625C48.2432 73.6282 46.8771 67.0293 46.3661 63.1432C46.4261 63.1175 46.4871 63.0886 46.5493 63.0564L48.465 62.0375ZM55.2857 61.3561C55.2862 61.4407 55.27 61.5245 55.238 61.6029C55.206 61.6812 55.1589 61.7524 55.0993 61.8125C55.0391 61.873 54.9675 61.921 54.8885 61.9536C54.8096 61.9861 54.725 62.0026 54.6396 62.0021C54.5356 61.9987 54.4335 61.9723 54.3407 61.925L52.6532 61.0218C52.6913 60.8868 52.7118 60.7474 52.7143 60.6071V59.3214C52.7135 59.2135 52.7027 59.1059 52.6821 59H55.0382H55.2857V61.3561ZM51.4286 59.3214V60.6071C51.4286 60.6924 51.3947 60.7741 51.3344 60.8344C51.2741 60.8947 51.1924 60.9286 51.1071 60.9286H49.1786C49.0933 60.9286 49.0116 60.8947 48.9513 60.8344C48.891 60.7741 48.8571 60.6924 48.8571 60.6071V59.3214C48.8571 59.2362 48.891 59.1544 48.9513 59.0941C49.0116 59.0339 49.0933 59 49.1786 59H51.1071C51.1924 59 51.2741 59.0339 51.3344 59.0941C51.3947 59.1544 51.4286 59.2362 51.4286 59.3214ZM47.6325 61.0218L45.945 61.9218C45.854 61.9711 45.7528 61.9986 45.6493 62.0021C45.4771 61.9971 45.3126 61.9297 45.1864 61.8125C45.1269 61.7524 45.0797 61.6812 45.0477 61.6029C45.0157 61.5245 44.9995 61.4407 45 61.3561V59H45.2475H47.6036C47.583 59.1059 47.5723 59.2135 47.5714 59.3214V60.6071C47.5739 60.7474 47.5945 60.8868 47.6325 61.0218ZM63.3504 44.3654C63.5215 44.3281 63.696 44.3087 63.8711 44.3075C64.1792 44.3001 64.4858 44.3535 64.7733 44.4646C65.0608 44.5757 65.3236 44.7423 65.5467 44.955C65.7698 45.1676 65.9489 45.4222 66.0736 45.704C66.1984 45.9859 66.2664 46.2895 66.2738 46.5977C66.2811 46.9058 66.2278 47.2124 66.1167 47.4999C66.0056 47.7874 65.8389 48.0502 65.6263 48.2733C65.4136 48.4964 65.1591 48.6755 64.8772 48.8002C64.5954 48.925 64.2917 48.993 63.9836 49.0004C63.8895 48.1698 63.6807 47.3564 63.3632 46.5832L63 45.6961V44.4457L63.3504 44.3654ZM61.7143 40.2446C61.3386 40.1118 61.0133 39.8659 60.7831 39.5407C60.5529 39.2155 60.429 38.827 60.4286 38.4286V35.2143H61.7143V40.2446ZM36.9643 17.4232C36.9322 17.1551 36.9574 16.8831 37.0383 16.6255C37.1192 16.3678 37.2539 16.1302 37.4336 15.9286C37.6148 15.726 37.8367 15.564 38.0849 15.4532C38.333 15.3424 38.6018 15.2854 38.8736 15.2857H61.4121C61.6839 15.2854 61.9527 15.3424 62.2009 15.4532C62.449 15.564 62.671 15.726 62.8521 15.9286C63.0322 16.1306 63.1672 16.3687 63.2481 16.627C63.329 16.8852 63.354 17.1578 63.3214 17.4264L61.7818 31.3571H38.5039L36.9643 17.4232ZM32.7857 33.2857C32.7857 33.1152 32.8534 32.9517 32.974 32.8311C33.0946 32.7106 33.2581 32.6429 33.4286 32.6429H66.8571C67.0276 32.6429 67.1912 32.7106 67.3117 32.8311C67.4323 32.9517 67.5 33.1152 67.5 33.2857C67.5 33.4562 67.4323 33.6197 67.3117 33.7403C67.1912 33.8608 67.0276 33.9286 66.8571 33.9286H33.4286C33.2581 33.9286 33.0946 33.8608 32.974 33.7403C32.8534 33.6197 32.7857 33.4562 32.7857 33.2857ZM39.8571 35.2143V38.4286C39.858 38.8281 39.7348 39.2181 39.5045 39.5445C39.2741 39.871 38.9481 40.1179 38.5714 40.2511V35.2143H39.8571ZM36.9643 46.4964C36.9468 46.524 36.9317 46.553 36.9193 46.5832C36.6018 47.3564 36.393 48.1698 36.2989 49.0004C35.9908 48.993 35.6871 48.925 35.4053 48.8002C35.1234 48.6755 34.8689 48.4964 34.6562 48.2733C34.2267 47.8227 33.9938 47.22 34.0088 46.5977C34.0237 45.9754 34.2852 45.3845 34.7358 44.955C35.1864 44.5255 35.7891 44.2926 36.4114 44.3075C36.5855 44.3086 36.7589 44.328 36.9289 44.3654L37.2825 44.4457V45.9661L36.9643 46.4964ZM37.5332 49.6432C37.5736 48.7721 37.7628 47.9144 38.0925 47.1071L38.4782 46.4643C38.5371 46.3673 38.5693 46.2564 38.5714 46.1429V41.5786C39.2974 41.4304 39.95 41.0359 40.4186 40.4619C40.8871 39.8878 41.143 39.1696 41.1429 38.4286V35.2143H59.1429V38.4286C59.1427 39.1696 59.3986 39.8878 59.8672 40.4619C60.3357 41.0359 60.9883 41.4304 61.7143 41.5786V45.8214C61.7143 45.9052 61.7307 45.9882 61.7625 46.0657L62.1739 47.0718C62.5141 47.8889 62.7088 48.7591 62.7493 49.6432C62.8131 51.1032 62.4628 52.5514 61.7388 53.8209C61.0148 55.0903 59.9466 56.1291 58.6575 56.8175C57.7903 57.2794 56.8417 57.5687 55.8643 57.6693C55.5898 57.6975 55.3141 57.7114 55.0382 57.7111H45.2475C44.9727 57.7115 44.698 57.6976 44.4246 57.6693C43.4456 57.5696 42.4956 57.2792 41.6282 56.8143C40.3391 56.1267 39.2709 55.0885 38.5468 53.8196C37.8228 52.5507 37.4725 51.1028 37.5364 49.6432H37.5332ZM35.8071 62.0246C37.0218 60.8205 38.3824 59.7731 39.8571 58.9068V62.2143C39.8573 62.3538 39.9029 62.4894 39.987 62.6008C40.0711 62.7121 40.1891 62.7931 40.3232 62.8314L41.6089 63.1979L40.0243 65.0043C39.9558 65.0828 39.9075 65.1768 39.8834 65.2781C39.8593 65.3795 39.8602 65.4852 39.8861 65.5861C39.9664 65.9075 41.9175 73.4161 49.5096 79.2436V84.7079H37.2857C37.395 75.8268 39.7414 71.5679 39.7671 71.5293L39.2143 71.2143L38.655 70.8929C38.5489 71.0793 36.1157 75.4507 36.0064 84.7143H28.9286C29.0636 73.6732 32.4643 65.3868 35.8104 62.0246H35.8071Z" fill="#110002"></path>
  </symbol>
  <symbol fill="none" xmlns="http://www.w3.org/2000/svg" viewBox="0 0 20 16" id="twitter">
    <path d="M6.57073 15.7889C4.44295 15.7889 2.45949 15.1514 0.790039 14.0514C2.20746 14.1459 4.70889 13.9197 6.26477 12.3909C3.92421 12.2803 2.86866 10.4311 2.73098 9.64091C2.92986 9.71993 3.87832 9.81476 4.41374 9.5935C1.72133 8.89809 1.30829 6.46419 1.40008 5.72137C1.9049 6.08488 2.76158 6.21131 3.09813 6.1797C0.589293 4.33057 1.49186 1.54896 1.9355 0.948382C3.73593 3.51781 6.43422 4.9609 9.77236 5.04117C9.70942 4.75682 9.67618 4.46078 9.67618 4.15672C9.67618 1.97456 11.3884 0.205566 13.5006 0.205566C14.6042 0.205566 15.5986 0.688483 16.2967 1.46093C17.0341 1.28292 18.144 0.86621 18.6866 0.505854C18.4131 1.51735 17.5617 2.36114 17.0466 2.67388C17.0509 2.68452 17.0424 2.6632 17.0466 2.67388C17.499 2.60339 18.7231 2.36106 19.2067 2.02309C18.9676 2.59134 18.0649 3.53615 17.3241 4.0651C17.4619 10.3266 12.8112 15.7889 6.57073 15.7889Z" fill="#F8F8F8"></path>
  </symbol>
  <symbol fill="none" xmlns="http://www.w3.org/2000/svg" viewBox="0 0 20 10" id="arrow">
    <path d="M20 4.99984L14.9713 0.833171L14.9713 4.1665L5.96244e-08 4.1665L3.97496e-08 5.83317L14.9713 5.83317L14.9713 9.1665L20 4.99984Z" fill="white"></path>
  </symbol>
  <symbol fill="none" xmlns="http://www.w3.org/2000/svg" viewBox="0 0 20 10" id="arrow-grey">
    <path d="M20 4.99984L14.9713 0.833171L14.9713 4.1665L5.96244e-08 4.1665L3.97496e-08 5.83317L14.9713 5.83317L14.9713 9.1665L20 4.99984Z" fill="#676a6c"></path>
  </symbol>
  <symbol id="chevron" xmlns="http://www.w3.org/2000/svg" viewBox="0 0 51 51">
    <defs></defs>
    <circle cx="25.5" cy="25.5" r="25.5"></circle>
    <rect x="24.4" y="27.9" width="1.6" height="15.24" rx="0.8" transform="matrix(0.78, -0.63, 0.63, 0.78, -21.26, 15.39)"></rect>
    <rect x="33.3" y="27.9" width="1.6" height="15.24" rx="0.8" transform="translate(24 -21.9) rotate(37.3)"></rect>
  </symbol>
  <symbol fill="none" xmlns="http://www.w3.org/2000/svg" viewBox="0 0 100 100" id="Combination">
    <circle cx="50" cy="50" r="50" fill="#DAF6E7"></circle>
    <g clip-path="url(#clip0_18_3598)">
      <path d="M61.0511 76.0874H38.9489C38.9489 76.0874 42.7177 73.1996 42.7177 67.5585H57.2823C57.2823 73.1996 61.0511 76.0874 61.0511 76.0874Z" fill="#ADE7FF"></path>
      <path d="M57.2823 67.5585H53.9759C53.9759 73.1996 57.7447 76.0874 57.7447 76.0874H61.0511C61.0511 76.0874 57.2823 73.1996 57.2823 67.5585Z" fill="#82D2F5"></path>
      <path d="M77.1804 68.1466H22.8196C21.8147 68.1466 21.0001 67.3324 21.0001 66.3274V32.6223C21.0001 31.6174 21.8147 30.8028 22.8196 30.8028H77.1804C78.1853 30.8028 78.9999 31.6174 78.9999 32.6223V66.3274C78.9999 67.3324 78.1853 68.1466 77.1804 68.1466Z" fill="#685C79"></path>
      <path d="M77.1803 30.8028H73.6797C74.6846 30.8028 75.4988 31.6174 75.4988 32.6223V66.3275C75.4988 67.3324 74.6846 68.1466 73.6797 68.1466H77.1803C78.1853 68.1466 78.9999 67.3324 78.9999 66.3275V32.6223C78.9999 31.6174 78.1853 30.8028 77.1803 30.8028Z" fill="#594F69"></path>
      <path d="M24.5012 64.1929V34.7571C24.5012 34.5066 24.7038 34.3039 24.9543 34.3039H75.0458C75.2963 34.3039 75.499 34.5066 75.499 34.7571V64.1929C75.499 64.4429 75.2963 64.6461 75.0458 64.6461H24.9543C24.7038 64.6461 24.5012 64.4429 24.5012 64.1929Z" fill="#85BB72"></path>
      <path d="M65.0545 78.9999H34.946C33.9792 78.9999 33.1955 78.2162 33.1955 77.2494C33.1955 76.2825 33.9792 75.4988 34.946 75.4988H65.0545C66.0214 75.4988 66.8051 76.2825 66.8051 77.2494C66.8051 78.2162 66.0214 78.9999 65.0545 78.9999Z" fill="#685C79"></path>
      <path d="M65.0545 75.4988H61.5388C62.5052 75.4988 63.2889 76.2829 63.2889 77.2494C63.2889 78.2162 62.5052 78.9999 61.5388 78.9999H65.0545C66.0209 78.9999 66.805 78.2162 66.805 77.2494C66.805 76.2825 66.0213 75.4988 65.0545 75.4988Z" fill="#594F69"></path>
      <path d="M67.5488 23.6002C67.5488 24.567 66.7652 25.3507 65.7983 25.3507C64.8314 25.3507 64.0477 24.567 64.0477 23.6002C64.0477 22.6333 64.8314 21.8496 65.7983 21.8496C66.7652 21.8496 67.5488 22.6333 67.5488 23.6002Z" fill="#FFEB17"></path>
      <path d="M51.7506 23.6002C51.7506 24.567 50.9669 25.3507 50 25.3507C49.0331 25.3507 48.2495 24.567 48.2495 23.6002C48.2495 22.6333 49.0331 21.8496 50 21.8496C50.9669 21.8496 51.7506 22.6333 51.7506 23.6002Z" fill="#FF2C5C"></path>
      <path d="M35.9523 23.6002C35.9523 24.567 35.1686 25.3507 34.2017 25.3507C33.2348 25.3507 32.4512 24.567 32.4512 23.6002C32.4512 22.6333 33.2348 21.8496 34.2017 21.8496C35.1686 21.8496 35.9523 22.6333 35.9523 23.6002Z" fill="#FFEB17"></path>
      <path d="M68.3985 23.6002C68.3985 22.1664 67.232 21 65.7983 21C64.3646 21 63.1981 22.1664 63.1981 23.6002C63.1981 24.7365 63.9309 25.7038 64.9487 26.0569V27.3017H57.0752C56.6057 27.3017 56.2256 27.6823 56.2256 28.1513V41.2234C56.2256 41.6924 56.6057 42.073 57.0752 42.073C57.5443 42.073 57.9248 41.6924 57.9248 41.2234V29.0009H65.7983C66.2678 29.0009 66.6479 28.6208 66.6479 28.1513V26.0569C67.6657 25.7038 68.3985 24.7365 68.3985 23.6002ZM65.7983 24.5011C65.3014 24.5011 64.8974 24.0971 64.8974 23.6002C64.8974 23.1032 65.3014 22.6992 65.7983 22.6992C66.2952 22.6992 66.6992 23.1032 66.6992 23.6002C66.6992 24.0971 66.2952 24.5011 65.7983 24.5011Z" fill="#594F69"></path>
      <path d="M50 21C48.5663 21 47.3998 22.1664 47.3998 23.6002C47.3998 24.7365 48.1326 25.7038 49.1504 26.0569V37.8957C49.1504 38.3652 49.5309 38.7453 50 38.7453C50.4695 38.7453 50.8496 38.3652 50.8496 37.8957V26.0569C51.8674 25.7038 52.6002 24.7365 52.6002 23.6002C52.6002 22.1664 51.4337 21 50 21ZM50 24.5011C49.5031 24.5011 49.0991 24.0971 49.0991 23.6002C49.0991 23.1032 49.5031 22.6992 50 22.6992C50.4969 22.6992 50.9009 23.1032 50.9009 23.6002C50.9009 24.0971 50.4969 24.5011 50 24.5011Z" fill="#594F69"></path>
      <path d="M42.9253 27.3017H35.0513V26.0569C36.0691 25.7038 36.8019 24.7365 36.8019 23.6002C36.8019 22.1664 35.6354 21 34.2017 21C32.768 21 31.6016 22.1664 31.6016 23.6002C31.6016 24.7365 32.3344 25.7038 33.3521 26.0569V28.1513C33.3521 28.6208 33.7327 29.0009 34.2017 29.0009H42.0757V41.2234C42.0757 41.6924 42.4558 42.073 42.9253 42.073C43.3943 42.073 43.7749 41.6924 43.7749 41.2234V28.1513C43.7749 27.6823 43.3943 27.3017 42.9253 27.3017ZM34.2017 22.6992C34.6987 22.6992 35.1027 23.1032 35.1027 23.6002C35.1027 24.0971 34.6987 24.5011 34.2017 24.5011C33.7052 24.5011 33.3008 24.0971 33.3008 23.6002C33.3008 23.1032 33.7052 22.6992 34.2017 22.6992Z" fill="#594F69"></path>
      <path d="M61.3202 42.8827V56.2995C61.3202 56.5623 61.1697 56.8004 60.933 56.9137L57.8722 58.3762L50.2934 61.9963C50.2005 62.0405 50.0996 62.0622 50 62.0622C49.9005 62.0622 49.7996 62.0405 49.7066 61.9963L39.0675 56.9137C38.8308 56.8004 38.6799 56.5623 38.6799 56.2995V42.8827C38.6799 42.7464 38.7206 42.6172 38.7932 42.5088C38.8591 42.4079 38.9529 42.3238 39.0675 42.2699L46.7525 38.5984L49.7066 37.1868C49.8925 37.0974 50.1076 37.0974 50.2934 37.1868L60.933 42.2699C61.0472 42.3238 61.1414 42.4079 61.2069 42.5088C61.2795 42.6172 61.3202 42.7464 61.3202 42.8827Z" fill="#FF2C5C"></path>
      <path d="M50 47.8622V62.0622C49.9005 62.0622 49.7996 62.0405 49.7066 61.9963L39.0675 56.9137C38.8308 56.8004 38.6799 56.5623 38.6799 56.2995V42.8827C38.6799 42.7464 38.7206 42.6172 38.7932 42.5088L50 47.8622Z" fill="#4FB1F5"></path>
      <path d="M61.3202 42.8827V56.2995C61.3202 56.5623 61.1697 56.8004 60.933 56.9137L57.8722 58.3761L50.2934 61.9963C50.2005 62.0405 50.0996 62.0622 50 62.0622V47.8622L57.8186 44.1275L61.2069 42.5088C61.2794 42.6172 61.3202 42.7464 61.3202 42.8827Z" fill="#FFD659"></path>
      <path d="M61.2069 42.5088L57.8187 44.1275L46.7525 38.5984L49.7067 37.1868C49.8925 37.0974 50.1076 37.0974 50.2934 37.1868L60.933 42.2699C61.0472 42.3238 61.1414 42.4079 61.2069 42.5088Z" fill="#E62753"></path>
      <path d="M61.3201 42.8827V56.2995C61.3201 56.5623 61.1697 56.8004 60.933 56.9137L57.8721 58.3761L57.8186 44.1275L61.2069 42.5088C61.2794 42.6172 61.3201 42.7464 61.3201 42.8827Z" fill="#FFEB17"></path>
    </g>
    <defs>
      <clipPath id="clip0_18_3598">
        <rect width="58" height="58" fill="white" transform="translate(21 21)"></rect>
      </clipPath>
    </defs>
  </symbol>
  <symbol fill="none" xmlns="http://www.w3.org/2000/svg" viewBox="0 0 10 20" id="f">
    <path d="M8.69304 9.49387L9.13354 6.69492H6.37786V4.87939C6.37786 4.11347 6.7621 3.36644 7.99636 3.36644H9.25V0.983552C9.25 0.983552 8.11278 0.794434 7.02602 0.794434C4.75551 0.794434 3.27285 2.13527 3.27285 4.56167V6.69492H0.75V9.49387H3.27285V19.2111H6.37786V9.49387H8.69304Z" fill="#F8F8F8"></path>
  </symbol>
  <symbol fill="none" xmlns="http://www.w3.org/2000/svg" viewBox="0 0 20 20" id="instagram">
    <path d="M16.4442 4.93818C16.4442 5.70103 15.8258 6.31943 15.063 6.31943C14.3001 6.31943 13.6817 5.70103 13.6817 4.93818C13.6817 4.17534 14.3001 3.55693 15.063 3.55693C15.8258 3.55693 16.4442 4.17534 16.4442 4.93818Z" fill="#F8F8F8"></path>
    <path fill-rule="evenodd" clip-rule="evenodd" d="M9.99837 14.6069C12.5412 14.6069 14.6025 12.5456 14.6025 10.0028C14.6025 7.45996 12.5412 5.3986 9.99837 5.3986C7.45556 5.3986 5.39421 7.45996 5.39421 10.0028C5.39421 12.5456 7.45556 14.6069 9.99837 14.6069ZM9.99837 12.7653C11.5241 12.7653 12.7609 11.5285 12.7609 10.0028C12.7609 8.47708 11.5241 7.24027 9.99837 7.24027C8.47269 7.24027 7.23587 8.47708 7.23587 10.0028C7.23587 11.5285 8.47269 12.7653 9.99837 12.7653Z" fill="#F8F8F8"></path>
    <path fill-rule="evenodd" clip-rule="evenodd" d="M0.790039 9.63444C0.790039 6.54014 0.790039 4.993 1.39223 3.81114C1.92193 2.77154 2.76715 1.92632 3.80674 1.39662C4.9886 0.794434 6.53575 0.794434 9.63004 0.794434H10.3667C13.461 0.794434 15.0081 0.794434 16.19 1.39662C17.2296 1.92632 18.0748 2.77154 18.6045 3.81114C19.2067 4.993 19.2067 6.54014 19.2067 9.63444V10.3711C19.2067 13.4654 19.2067 15.0125 18.6045 16.1944C18.0748 17.234 17.2296 18.0792 16.19 18.6089C15.0081 19.2111 13.461 19.2111 10.3667 19.2111H9.63004C6.53575 19.2111 4.9886 19.2111 3.80674 18.6089C2.76715 18.0792 1.92193 17.234 1.39223 16.1944C0.790039 15.0125 0.790039 13.4654 0.790039 10.3711V9.63444ZM9.63004 2.6361H10.3667C11.9442 2.6361 13.0166 2.63753 13.8455 2.70526C14.653 2.77123 15.0659 2.8908 15.3539 3.03756C16.047 3.39069 16.6104 3.95417 16.9636 4.64724C17.1103 4.93527 17.2299 5.34818 17.2959 6.1556C17.3636 6.98451 17.365 8.0569 17.365 9.63444V10.3711C17.365 11.9486 17.3636 13.021 17.2959 13.8499C17.2299 14.6574 17.1103 15.0703 16.9636 15.3583C16.6104 16.0514 16.047 16.6148 15.3539 16.968C15.0659 17.1147 14.653 17.2343 13.8455 17.3003C13.0166 17.368 11.9442 17.3694 10.3667 17.3694H9.63004C8.05251 17.3694 6.98012 17.368 6.1512 17.3003C5.34379 17.2343 4.93088 17.1147 4.64284 16.968C3.94978 16.6148 3.3863 16.0514 3.03317 15.3583C2.8864 15.0703 2.76683 14.6574 2.70086 13.8499C2.63314 13.021 2.63171 11.9486 2.63171 10.3711V9.63444C2.63171 8.0569 2.63314 6.98451 2.70086 6.1556C2.76683 5.34818 2.8864 4.93527 3.03317 4.64724C3.3863 3.95417 3.94978 3.39069 4.64284 3.03756C4.93088 2.8908 5.34379 2.77123 6.1512 2.70526C6.98012 2.63753 8.05251 2.6361 9.63004 2.6361Z" fill="#F8F8F8"></path>
  </symbol>
</svg>