<svg width="15" height="14" viewBox="0 0 15 14" fill="none" xmlns="http://www.w3.org/2000/svg">
<path d="M5.2463 2.41053C5.99789 0.241961 9.098 0.241961 9.84959 2.41053C10.1747 3.34857 11.0624 3.98901 12.0552 3.98901H12.3138C14.5289 3.98901 15.4114 6.85241 13.5807 8.09936C12.7406 8.67156 12.3907 9.74258 12.7236 10.703C13.4482 12.7936 11.098 14.6265 9.26926 13.3809L8.9199 13.143C8.09215 12.5792 7.00374 12.5792 6.17599 13.143L5.82663 13.3809C3.99793 14.6265 1.64774 12.7936 2.3723 10.703C2.70515 9.74258 2.35525 8.67156 1.51517 8.09936C-0.31552 6.85241 0.567023 3.98901 2.78204 3.98901H3.0407C4.03349 3.98901 4.92119 3.34857 5.2463 2.41053Z" fill="#FBB040"/>
</svg>
