<svg width="100" height="100" viewBox="0 0 100 100" fill="none" xmlns="http://www.w3.org/2000/svg">
<circle cx="50" cy="50" r="50" fill="#DAF6E7"/>
<path d="M28.2858 85.3572H72.0001C72.0001 74.4286 68.7858 65.4286 64.9287 61.5715C63.1868 59.8545 61.1692 58.442 58.9598 57.3929C60.3554 56.6462 61.5119 55.5206 62.2961 54.1456C63.0802 52.7707 63.4602 51.2022 63.3923 49.6208H63.5369C63.9423 49.667 64.3528 49.6298 64.7433 49.5115C65.1338 49.3932 65.4959 49.1963 65.8075 48.9329C66.1191 48.6695 66.3735 48.3452 66.5552 47.9799C66.7368 47.6145 66.8419 47.2159 66.8638 46.8085C66.8858 46.4011 66.8242 45.9935 66.6828 45.6108C66.5415 45.2281 66.3234 44.8783 66.0419 44.5829C65.7604 44.2876 65.4215 44.0529 65.046 43.8934C64.6705 43.7338 64.2663 43.6527 63.8583 43.6551C63.642 43.6571 63.4266 43.6819 63.2155 43.729L62.3573 43.9186V32.0001C62.3573 29.1016 61.2059 26.3219 59.1563 24.2724C57.1068 22.2229 54.3271 21.0715 51.4287 21.0715H48.8573C45.9588 21.0715 43.1791 22.2229 41.1296 24.2724C39.0801 26.3219 37.9287 29.1016 37.9287 32.0001V43.9283L37.0705 43.7386C36.8594 43.6915 36.6439 43.6667 36.4276 43.6647C36.0196 43.6624 35.6155 43.7434 35.24 43.903C34.8645 44.0626 34.5255 44.2972 34.2441 44.5926C33.9626 44.8879 33.7445 45.2377 33.6031 45.6204C33.4618 46.0032 33.4002 46.4108 33.4221 46.8182C33.4441 47.2256 33.5491 47.6242 33.7308 47.9895C33.9124 48.3548 34.1668 48.6792 34.4784 48.9426C34.79 49.2059 35.1522 49.4028 35.5427 49.5211C35.9331 49.6394 36.3437 49.6766 36.749 49.6304H36.8937C36.8276 51.2102 37.2084 52.7767 37.9925 54.1498C38.7766 55.5229 39.932 56.647 41.3262 57.3929C39.1168 58.442 37.0991 59.8545 35.3573 61.5715C31.5001 65.4286 28.2858 74.4286 28.2858 85.3572Z" fill="#FFB685"/>
<path d="M63.8712 43.6647C63.6549 43.6667 63.4394 43.6915 63.2283 43.7386L62.3701 43.9283V32.0001C62.3723 29.1747 61.2802 26.4583 59.3229 24.4208C57.3657 22.3832 54.6954 21.1829 51.8722 21.0715C54.0109 21.1852 56.0243 22.1156 57.4969 23.6707C58.9695 25.2258 59.7888 27.2869 59.7858 29.4286V47.2904L60.3901 48.7658C60.9416 50.0947 60.9767 51.5817 60.4885 52.9351C60.0002 54.2885 59.024 55.4107 57.7512 56.0815C56.9187 56.5251 56.3304 57.0715 55.3597 57.0715H40.7894C40.9629 57.184 41.1429 57.2901 41.3262 57.3929C42.5335 58.0336 43.8808 58.3649 45.2476 58.3572H45.8294C46.1056 59.2868 46.6748 60.1023 47.4521 60.6822C48.2293 61.2621 49.1732 61.5754 50.1429 61.5754C51.1127 61.5754 52.0565 61.2621 52.8338 60.6822C53.6111 60.1023 54.1803 59.2868 54.4565 58.3572H55.0383C56.405 58.3649 57.7524 58.0336 58.9597 57.3929C60.3554 56.6462 61.5119 55.5206 62.296 54.1456C63.0802 52.7707 63.4602 51.2022 63.3922 49.6208H63.5369C63.9422 49.667 64.3528 49.6298 64.7433 49.5115C65.1337 49.3932 65.4959 49.1963 65.8075 48.9329C66.1191 48.6695 66.3735 48.3452 66.5552 47.9799C66.7368 47.6145 66.8418 47.2159 66.8638 46.8085C66.8857 46.4011 66.8241 45.9935 66.6828 45.6108C66.5415 45.2281 66.3233 44.8783 66.0418 44.5829C65.7604 44.2876 65.4215 44.0529 65.0459 43.8934C64.6704 43.7338 64.2663 43.6527 63.8583 43.6551L63.8712 43.6647Z" fill="#E2895D"/>
<path d="M40.5001 34.5715V38.4286C40.5001 39.1106 40.2292 39.7647 39.7469 40.2469C39.2647 40.7292 38.6106 41.0001 37.9286 41.0001V34.5715H40.5001Z" fill="#D81A1A"/>
<path d="M62.3573 34.5715V41.0001C61.6753 41.0001 61.0212 40.7292 60.539 40.2469C60.0567 39.7647 59.7858 39.1106 59.7858 38.4286V34.5715H62.3573Z" fill="#D81A1A"/>
<path d="M50.1431 78.9285C47.7034 74.8014 46.1027 66.4346 45.6431 62.645C45.8497 62.6418 46.0526 62.5889 46.2345 62.4907L48.4845 61.2885C48.5755 61.3797 48.6838 61.4516 48.803 61.5002C48.9223 61.5488 49.05 61.573 49.1788 61.5714H51.1074C51.363 61.5712 51.6081 61.4694 51.7888 61.2885L54.0388 62.4907C54.2207 62.5889 54.4235 62.6418 54.6302 62.645C54.1834 66.4346 52.5827 74.8014 50.1431 78.9285Z" fill="#FFB8F5"/>
<path d="M63.6431 85.3572H50.1431V78.9287C57.8574 73.143 59.7859 65.4287 59.7859 65.4287L57.5359 62.8572L59.7859 62.2144V57.8044C61.6772 58.7986 63.4104 60.0681 64.9288 61.5715C68.7859 65.4287 72.0002 74.4287 72.0002 85.3572H63.6431Z" fill="#85BB72"/>
<path d="M66.8573 32C67.1983 32 67.5253 32.1355 67.7664 32.3766C68.0075 32.6177 68.143 32.9447 68.143 33.2857C68.143 33.6267 68.0075 33.9537 67.7664 34.1949C67.5253 34.436 67.1983 34.5714 66.8573 34.5714H33.4287C33.0877 34.5714 32.7607 34.436 32.5196 34.1949C32.2785 33.9537 32.143 33.6267 32.143 33.2857C32.143 32.9447 32.2785 32.6177 32.5196 32.3766C32.7607 32.1355 33.0877 32 33.4287 32H66.8573Z" fill="#85BB72"/>
<path d="M61.4123 14.6429C61.7735 14.6434 62.1306 14.72 62.4603 14.8677C62.7899 15.0155 63.0847 15.231 63.3255 15.5003C63.5663 15.7696 63.7476 16.0866 63.8577 16.4306C63.9678 16.7747 64.0042 17.1381 63.9644 17.4971L62.3573 32H37.9287L36.3216 17.4971C36.2817 17.1365 36.3185 16.7714 36.4297 16.426C36.541 16.0806 36.724 15.7627 36.9669 15.4931C37.2098 15.2235 37.507 15.0084 37.839 14.8618C38.1709 14.7153 38.5301 14.6407 38.893 14.6429H61.4123Z" fill="#85BB72"/>
<path d="M59.7859 57.8044V62.2144L57.5359 62.8572L59.7859 65.4286C59.7859 65.4286 57.8574 73.1429 50.1431 78.9286C52.5827 74.8015 54.1834 66.4347 54.6431 62.6451C54.9841 62.6451 55.3111 62.5096 55.5522 62.2685C55.7933 62.0274 55.9288 61.7003 55.9288 61.3593V58.3154C56.9896 58.2064 58.0191 57.892 58.9598 57.3897C59.2202 57.5119 59.4966 57.6501 59.7859 57.8044Z" fill="#85BB72"/>
<path d="M54.643 62.645C54.4363 62.6419 54.2334 62.589 54.0515 62.4907L51.8015 61.2886C51.9777 61.1058 52.0747 60.861 52.0715 60.6072V59.3214C52.0715 59.0657 51.9699 58.8204 51.7891 58.6396C51.6083 58.4588 51.363 58.3572 51.1072 58.3572H55.0383C55.3405 58.3572 55.6394 58.3411 55.9287 58.3122V61.3561C55.9291 61.5252 55.8961 61.6927 55.8317 61.8491C55.7673 62.0055 55.6727 62.1476 55.5532 62.2673C55.4338 62.387 55.2919 62.482 55.1357 62.5468C54.9795 62.6117 54.8121 62.645 54.643 62.645Z" fill="#D81A1A"/>
<path d="M52.0714 59.3215V60.6072C52.0714 60.863 51.9698 61.1082 51.7889 61.2891C51.6081 61.4699 51.3628 61.5715 51.1071 61.5715H49.1785C48.9228 61.5715 48.6775 61.4699 48.4967 61.2891C48.3158 61.1082 48.2142 60.863 48.2142 60.6072V59.3215C48.2142 59.0657 48.3158 58.8205 48.4967 58.6396C48.6775 58.4588 48.9228 58.3572 49.1785 58.3572H51.1071C51.3628 58.3572 51.6081 58.4588 51.7889 58.6396C51.9698 58.8205 52.0714 59.0657 52.0714 59.3215Z" fill="#D81A1A"/>
<path d="M36.643 85.3572H28.2858C28.2858 74.4287 31.5001 65.4287 35.3573 61.5715C36.8756 60.0681 38.6088 58.7986 40.5001 57.8044V62.2144L42.7501 62.8572L40.5001 65.4287C40.5001 65.4287 42.4287 73.143 50.143 78.9287V85.3572H36.643Z" fill="#0AC05E" fill-opacity="0.5"/>
<path d="M45.643 62.645C45.302 62.645 44.9749 62.5095 44.7338 62.2684C44.4927 62.0273 44.3572 61.7003 44.3572 61.3593V58.3154C44.6465 58.3443 44.9455 58.3604 45.2476 58.3604H49.1787C48.9229 58.3604 48.6777 58.462 48.4968 58.6428C48.316 58.8236 48.2144 59.0689 48.2144 59.3246V60.6104C48.2146 60.866 48.3163 61.1111 48.4972 61.2918L46.2472 62.4939C46.0612 62.5931 45.8537 62.6449 45.643 62.645Z" fill="#D81A1A"/>
<path d="M45.6429 62.645C46.0897 66.4346 47.6904 74.8014 50.1429 78.9286C42.4286 73.1428 40.5001 65.4286 40.5001 65.4286L42.7501 62.8571L40.5001 62.2143V57.8043C40.7893 57.65 41.0658 57.5118 41.3261 57.3864C42.2669 57.8887 43.2964 58.2031 44.3572 58.3121V61.3561C44.3568 61.5252 44.3897 61.6927 44.4541 61.8491C44.5186 62.0054 44.6132 62.1475 44.7326 62.2673C44.8521 62.387 44.994 62.482 45.1502 62.5468C45.3064 62.6116 45.4738 62.645 45.6429 62.645Z" fill="#85BB72"/>
<path d="M50.1429 48.0715C52.4412 48.0715 53.2544 46.4965 53.2897 46.429L52.1422 45.8472C52.1229 45.8857 51.6215 46.7857 50.1429 46.7857C48.6644 46.7857 48.1629 45.8857 48.1437 45.8472L46.9962 46.429C47.0315 46.4965 47.8447 48.0715 50.1429 48.0715Z" fill="#110002"/>
<path d="M44.3572 42.2857H45.643V44.8571H44.3572V42.2857Z" fill="#110002"/>
<path d="M44.8459 38.8626C45.2107 38.9289 45.5363 39.1325 45.7556 39.4315L46.8195 38.7147C46.6088 38.4084 46.3364 38.1496 46.0197 37.9547C45.7031 37.7599 45.3493 37.6334 44.9809 37.5833C44.1806 37.5029 43.3738 37.8501 42.6184 38.6183L43.5248 39.5247C44.0038 39.049 44.4506 38.824 44.8459 38.8626Z" fill="#110002"/>
<path d="M54.6431 42.2857H55.9288V44.8571H54.6431V42.2857Z" fill="#110002"/>
<path d="M55.4401 38.8626C55.8386 38.824 56.2822 39.049 56.7611 39.5247L57.6676 38.6183C56.9026 37.8501 56.1054 37.5029 55.3051 37.5833C54.9367 37.6334 54.5828 37.7599 54.2662 37.9547C53.9496 38.1496 53.6772 38.4084 53.4665 38.7147L54.5304 39.4315C54.7497 39.1325 55.0752 38.9289 55.4401 38.8626Z" fill="#110002"/>
<path d="M49.5001 63.1785H50.7858V64.4642H49.5001V63.1785Z" fill="#110002"/>
<path d="M49.5001 67.0357H50.7858V68.3214H49.5001V67.0357Z" fill="#110002"/>
<path d="M72.6429 84.7143C72.5239 74.7918 69.6407 65.3675 65.3882 61.1182C63.874 59.6131 62.1479 58.3375 60.2646 57.3318C61.3933 56.5256 62.3213 55.4705 62.9768 54.2482C63.6323 53.0259 63.9977 51.6691 64.0446 50.2829C64.5483 50.2603 65.0417 50.1331 65.4936 49.9094C65.9454 49.6857 66.3457 49.3704 66.669 48.9836C66.9923 48.5967 67.2315 48.1468 67.3714 47.6625C67.5114 47.1781 67.5489 46.67 67.4818 46.1703C67.4146 45.6706 67.2441 45.1904 66.9812 44.7603C66.7183 44.3301 66.3687 43.9594 65.9547 43.6717C65.5407 43.384 65.0713 43.1856 64.5764 43.0892C64.0816 42.9928 63.5721 43.0005 63.0804 43.1118L63.0032 43.1279V35.2143H66.8604C67.3718 35.2143 67.8624 35.0111 68.2241 34.6494C68.5857 34.2877 68.7889 33.7972 68.7889 33.2857C68.7889 32.7742 68.5857 32.2837 68.2241 31.922C67.8624 31.5603 67.3718 31.3571 66.8604 31.3571H63.0739L64.6071 17.5679C64.6569 17.1186 64.6113 16.664 64.4734 16.2336C64.3355 15.8032 64.1084 15.4067 63.8069 15.07C63.5054 14.7333 63.1363 14.464 62.7236 14.2796C62.311 14.0952 61.8641 14 61.4121 14H38.8736C38.4216 14 37.9747 14.0952 37.5621 14.2796C37.1495 14.464 36.7803 14.7333 36.4788 15.07C36.1773 15.4067 35.9502 15.8032 35.8123 16.2336C35.6744 16.664 35.6289 17.1186 35.6786 17.5679L37.2118 31.3571H33.4286C32.9171 31.3571 32.4265 31.5603 32.0649 31.922C31.7032 32.2837 31.5 32.7742 31.5 33.2857C31.5 33.7972 31.7032 34.2877 32.0649 34.6494C32.4265 35.0111 32.9171 35.2143 33.4286 35.2143H37.2857V43.1279L37.2054 43.1118C36.9459 43.0526 36.6807 43.0224 36.4146 43.0218C35.4632 43.0178 34.5482 43.3874 33.8663 44.0509C33.1845 44.7145 32.7902 45.6191 32.7683 46.5703C32.7464 47.5215 33.0987 48.4433 33.7493 49.1376C34.3999 49.8318 35.2969 50.243 36.2475 50.2829C36.2959 51.6688 36.6619 53.025 37.3173 54.2472C37.9727 55.4693 38.8999 56.5246 40.0275 57.3318C38.1449 58.3386 36.4189 59.6141 34.9039 61.1182C30.6514 65.3675 27.7682 74.7918 27.6429 84.7143H27V86H73.2857V84.7143H72.6429ZM71.3571 84.7143H64.2857C64.1764 75.4539 61.7432 71.0825 61.6371 70.8929L60.5186 71.5357C60.5443 71.5775 62.8907 75.8364 63 84.7143H50.7857V79.25C58.3779 73.4225 60.3289 65.9107 60.4093 65.5925C60.4351 65.4916 60.436 65.3859 60.4119 65.2846C60.3879 65.1832 60.3395 65.0892 60.2711 65.0107L58.6864 63.2043L59.9721 62.8379C60.1055 62.7974 60.2222 62.7148 60.3045 62.6023C60.3868 62.4898 60.4304 62.3537 60.4286 62.2143V58.9068C61.9017 59.7741 63.261 60.8215 64.4754 62.0246C67.8214 65.3868 71.2221 73.6732 71.3571 84.7143ZM43.3736 62.6739C43.3426 62.5704 43.2859 62.4764 43.209 62.4006C43.132 62.3247 43.0372 62.2695 42.9332 62.24L41.1429 61.7289V58.1932L41.3229 58.1C42.0793 58.4695 42.8845 58.7293 43.7143 58.8714V61.3561C43.7141 61.6106 43.7643 61.8626 43.8619 62.0976C43.9595 62.3326 44.1027 62.5459 44.2832 62.7254C44.5059 62.9452 44.7782 63.1084 45.0771 63.2011C45.4436 65.9975 46.5171 72.0532 48.2914 76.5404C45.0594 73.5344 42.6287 69.7691 41.22 65.5861L43.2386 63.2814C43.3096 63.1993 43.3586 63.1005 43.3811 62.9942C43.4036 62.888 43.3988 62.7778 43.3671 62.6739H43.3736ZM58.9693 58.1032L59.1493 58.1964V61.7321L57.3654 62.2432C57.2614 62.2727 57.1666 62.3279 57.0896 62.4038C57.0126 62.4796 56.956 62.5736 56.925 62.6771C56.8938 62.7813 56.8895 62.8916 56.9126 62.9979C56.9356 63.1041 56.9852 63.2028 57.0568 63.2846L59.0786 65.5925C57.6706 69.775 55.2398 73.5393 52.0071 76.5436C53.7846 72.0596 54.8582 66.0039 55.2214 63.2043C55.5203 63.1116 55.7926 62.9484 56.0154 62.7286C56.1958 62.5492 56.339 62.3358 56.4367 62.1008C56.5343 61.8658 56.5845 61.6138 56.5843 61.3593V58.8714C57.4095 58.7291 58.2103 58.4705 58.9629 58.1032H58.9693ZM48.465 62.0375C48.6858 62.1514 48.9302 62.212 49.1786 62.2143H51.1071C51.3577 62.213 51.6045 62.1524 51.8271 62.0375L53.7364 63.0596C53.7975 63.0918 53.8586 63.1175 53.9196 63.1432C53.4054 67.0486 52.0393 73.6314 50.1429 77.5625C48.2432 73.6282 46.8771 67.0293 46.3661 63.1432C46.4261 63.1175 46.4871 63.0886 46.5493 63.0564L48.465 62.0375ZM55.2857 61.3561C55.2862 61.4407 55.27 61.5245 55.238 61.6029C55.206 61.6812 55.1589 61.7524 55.0993 61.8125C55.0391 61.873 54.9675 61.921 54.8885 61.9536C54.8096 61.9861 54.725 62.0026 54.6396 62.0021C54.5356 61.9987 54.4335 61.9723 54.3407 61.925L52.6532 61.0218C52.6913 60.8868 52.7118 60.7474 52.7143 60.6071V59.3214C52.7135 59.2135 52.7027 59.1059 52.6821 59H55.0382H55.2857V61.3561ZM51.4286 59.3214V60.6071C51.4286 60.6924 51.3947 60.7741 51.3344 60.8344C51.2741 60.8947 51.1924 60.9286 51.1071 60.9286H49.1786C49.0933 60.9286 49.0116 60.8947 48.9513 60.8344C48.891 60.7741 48.8571 60.6924 48.8571 60.6071V59.3214C48.8571 59.2362 48.891 59.1544 48.9513 59.0941C49.0116 59.0339 49.0933 59 49.1786 59H51.1071C51.1924 59 51.2741 59.0339 51.3344 59.0941C51.3947 59.1544 51.4286 59.2362 51.4286 59.3214ZM47.6325 61.0218L45.945 61.9218C45.854 61.9711 45.7528 61.9986 45.6493 62.0021C45.4771 61.9971 45.3126 61.9297 45.1864 61.8125C45.1269 61.7524 45.0797 61.6812 45.0477 61.6029C45.0157 61.5245 44.9995 61.4407 45 61.3561V59H45.2475H47.6036C47.583 59.1059 47.5723 59.2135 47.5714 59.3214V60.6071C47.5739 60.7474 47.5945 60.8868 47.6325 61.0218ZM63.3504 44.3654C63.5215 44.3281 63.696 44.3087 63.8711 44.3075C64.1792 44.3001 64.4858 44.3535 64.7733 44.4646C65.0608 44.5757 65.3236 44.7423 65.5467 44.955C65.7698 45.1676 65.9489 45.4222 66.0736 45.704C66.1984 45.9859 66.2664 46.2895 66.2738 46.5977C66.2811 46.9058 66.2278 47.2124 66.1167 47.4999C66.0056 47.7874 65.8389 48.0502 65.6263 48.2733C65.4136 48.4964 65.1591 48.6755 64.8772 48.8002C64.5954 48.925 64.2917 48.993 63.9836 49.0004C63.8895 48.1698 63.6807 47.3564 63.3632 46.5832L63 45.6961V44.4457L63.3504 44.3654ZM61.7143 40.2446C61.3386 40.1118 61.0133 39.8659 60.7831 39.5407C60.5529 39.2155 60.429 38.827 60.4286 38.4286V35.2143H61.7143V40.2446ZM36.9643 17.4232C36.9322 17.1551 36.9574 16.8831 37.0383 16.6255C37.1192 16.3678 37.2539 16.1302 37.4336 15.9286C37.6148 15.726 37.8367 15.564 38.0849 15.4532C38.333 15.3424 38.6018 15.2854 38.8736 15.2857H61.4121C61.6839 15.2854 61.9527 15.3424 62.2009 15.4532C62.449 15.564 62.671 15.726 62.8521 15.9286C63.0322 16.1306 63.1672 16.3687 63.2481 16.627C63.329 16.8852 63.354 17.1578 63.3214 17.4264L61.7818 31.3571H38.5039L36.9643 17.4232ZM32.7857 33.2857C32.7857 33.1152 32.8534 32.9517 32.974 32.8311C33.0946 32.7106 33.2581 32.6429 33.4286 32.6429H66.8571C67.0276 32.6429 67.1912 32.7106 67.3117 32.8311C67.4323 32.9517 67.5 33.1152 67.5 33.2857C67.5 33.4562 67.4323 33.6197 67.3117 33.7403C67.1912 33.8608 67.0276 33.9286 66.8571 33.9286H33.4286C33.2581 33.9286 33.0946 33.8608 32.974 33.7403C32.8534 33.6197 32.7857 33.4562 32.7857 33.2857ZM39.8571 35.2143V38.4286C39.858 38.8281 39.7348 39.2181 39.5045 39.5445C39.2741 39.871 38.9481 40.1179 38.5714 40.2511V35.2143H39.8571ZM36.9643 46.4964C36.9468 46.524 36.9317 46.553 36.9193 46.5832C36.6018 47.3564 36.393 48.1698 36.2989 49.0004C35.9908 48.993 35.6871 48.925 35.4053 48.8002C35.1234 48.6755 34.8689 48.4964 34.6562 48.2733C34.2267 47.8227 33.9938 47.22 34.0088 46.5977C34.0237 45.9754 34.2852 45.3845 34.7358 44.955C35.1864 44.5255 35.7891 44.2926 36.4114 44.3075C36.5855 44.3086 36.7589 44.328 36.9289 44.3654L37.2825 44.4457V45.9661L36.9643 46.4964ZM37.5332 49.6432C37.5736 48.7721 37.7628 47.9144 38.0925 47.1071L38.4782 46.4643C38.5371 46.3673 38.5693 46.2564 38.5714 46.1429V41.5786C39.2974 41.4304 39.95 41.0359 40.4186 40.4619C40.8871 39.8878 41.143 39.1696 41.1429 38.4286V35.2143H59.1429V38.4286C59.1427 39.1696 59.3986 39.8878 59.8672 40.4619C60.3357 41.0359 60.9883 41.4304 61.7143 41.5786V45.8214C61.7143 45.9052 61.7307 45.9882 61.7625 46.0657L62.1739 47.0718C62.5141 47.8889 62.7088 48.7591 62.7493 49.6432C62.8131 51.1032 62.4628 52.5514 61.7388 53.8209C61.0148 55.0903 59.9466 56.1291 58.6575 56.8175C57.7903 57.2794 56.8417 57.5687 55.8643 57.6693C55.5898 57.6975 55.3141 57.7114 55.0382 57.7111H45.2475C44.9727 57.7115 44.698 57.6976 44.4246 57.6693C43.4456 57.5696 42.4956 57.2792 41.6282 56.8143C40.3391 56.1267 39.2709 55.0885 38.5468 53.8196C37.8228 52.5507 37.4725 51.1028 37.5364 49.6432H37.5332ZM35.8071 62.0246C37.0218 60.8205 38.3824 59.7731 39.8571 58.9068V62.2143C39.8573 62.3538 39.9029 62.4894 39.987 62.6008C40.0711 62.7121 40.1891 62.7931 40.3232 62.8314L41.6089 63.1979L40.0243 65.0043C39.9558 65.0828 39.9075 65.1768 39.8834 65.2781C39.8593 65.3795 39.8602 65.4852 39.8861 65.5861C39.9664 65.9075 41.9175 73.4161 49.5096 79.2436V84.7079H37.2857C37.395 75.8268 39.7414 71.5679 39.7671 71.5293L39.2143 71.2143L38.655 70.8929C38.5489 71.0793 36.1157 75.4507 36.0064 84.7143H28.9286C29.0636 73.6732 32.4643 65.3868 35.8104 62.0246H35.8071Z" fill="#110002"/>
</svg>
